<svg xmlns="http://www.w3.org/2000/svg" viewBox="0 0 512 512" style="height: 512px; width: 512px;"><path d="M0 0h512v512H0z" fill="#000" fill-opacity="1"></path><g class="" transform="translate(0,0)" style="touch-action: none;"><path d="M256 76C123.45 76 16 183.452 16 316c0 43.716 11.453 84.698 31.875 120H196l31.875-64.688C191.868 359.546 166 325.938 166 286c0-49.706 40.294-90 90-90s90 40.294 90 90v30h150c0-132.548-107.45-240-240-240zm-4.218 150A60 60 0 0 0 196 286a60 60 0 0 0 120 0 60 60 0 0 0-64.218-60z" fill="#ffffff" fill-opacity="1"></path></g><g font-family="Arial, Helvetica, sans-serif" font-size="65" font-style="normal" font-weight="bold" text-anchor="middle" class="" transform="translate(264,488)" style="touch-action: none;"><text stroke="rgba(0, 0, 0, 1)" stroke-width="16.25"><tspan x="0" y="0">psi</tspan></text><text fill="rgba(41, 170, 225, 1)"><tspan x="0" y="0">psi</tspan></text></g></svg>