<?xml version="1.0" encoding="UTF-8" standalone="no"?>
<svg
   viewBox="0 0 428.37167 452.98978"
   version="1.1"
   id="svg840"
   sodipodi:docname="asteroid-A.svg"
   width="428.37167"
   height="452.98978"
   inkscape:version="1.1.1 (c3084ef, 2021-09-22)"
   xmlns:inkscape="http://www.inkscape.org/namespaces/inkscape"
   xmlns:sodipodi="http://sodipodi.sourceforge.net/DTD/sodipodi-0.dtd"
   xmlns="http://www.w3.org/2000/svg"
   xmlns:svg="http://www.w3.org/2000/svg">
  <defs
     id="defs844" />
  <sodipodi:namedview
     id="namedview842"
     pagecolor="#ffffff"
     bordercolor="#666666"
     borderopacity="1.0"
     inkscape:pageshadow="2"
     inkscape:pageopacity="0.0"
     inkscape:pagecheckerboard="0"
     showgrid="false"
     fit-margin-top="0"
     fit-margin-left="0"
     fit-margin-right="0"
     fit-margin-bottom="0"
     inkscape:zoom="1.7050781"
     inkscape:cx="23.752577"
     inkscape:cy="226.67583"
     inkscape:window-width="1312"
     inkscape:window-height="1081"
     inkscape:window-x="80"
     inkscape:window-y="25"
     inkscape:window-maximized="0"
     inkscape:current-layer="svg840" />
  <g
     class=""
     id="g826"
     transform="translate(-56.965,-36.307)">
    <path
       d="m 252.625,36.307 c -6.092,0.006 -12.026,0.422 -17.766,1.367 -6.74,15.11 -15.352,32.332 -15.352,32.332 L 186.755,56.553 c -16.186,7.61 -10.852,30.03 -20.06,38.44 -27.888,22.73 -83.84,68.866 -89.725,84.734 -12.537,33.803 -19.03,69.85 -20.005,104.95 14.493,7.74 31.347,20.743 47.008,34.73 14.336,14.328 35.16,31.31 40.828,49.716 l 2.096,7.168 -6.658,3.384 c -11.466,5.26 -9.42,16.91 -11.275,25.86 l -17.602,-3.77 c 1.218,-13.002 3.663,-24.96 13.206,-33.12 -8.763,-13.648 -21.562,-25.924 -32.584,-35.81 -11.454,-10.23 -24.25,-20.012 -34.933,-26.947 1.674,46.477 1.207,81.64 21.255,114.607 l 31.945,5.094 -0.553,28.053 42.27,-3.222 -5.3,30.28 c 92.217,38.28 247.83,-57.624 288.362,-162.223 8.685,-22.415 48.163,-45.242 49.896,-67.717 2.734,-35.472 -8.37,-70.06 -27.727,-100.74 -13.795,13.218 -29.79,17.135 -46.56,9.796 l 20.255,23.86 -13.723,11.648 -27.4,-32.273 -1.24,-18.446 c -5.757,-5.283 -11.19,-11.362 -16.046,-17.94 l -33.95,9.97 -5.073,-17.27 29.023,-8.522 c -3.782,-7.177 -6.71,-14.646 -8.39,-22.174 -2.694,-12.064 -2.116,-24.784 4.7,-35.326 0.07,-0.108 0.145,-0.21 0.216,-0.317 -36.018,-4.868 -73.49,-16.754 -106.387,-16.718 z m 121.287,26.806 c -3.475,5.376 -4.253,12.655 -2.248,21.633 2.005,8.978 6.862,19.155 13.3,28.45 6.44,9.293 14.446,17.73 22.216,23.577 23.14,12.916 41.762,7.763 39.084,-16.968 -1.89,-16.137 -17.54,-29.672 -23.46,-35.753 -12.655,-12.994 -38.097,-34.83 -48.892,-20.94 z m -36.207,4.266 -9.47,21.282 -25.104,9.29 -18.34,-10.36 z m -104.312,28.903 30.316,11.072 27.874,46.264 32.05,14.146 -7.27,16.468 -37.26,-16.45 z m -43.89,30.66 c 9.625,-0.01 19.89,2.822 25.817,11.815 6.116,5.094 16.364,8.502 27.846,12.816 l -6.332,16.852 c -5.8,-2.18 -12.472,-4.145 -18.963,-6.996 -1.048,3.52 -2.588,6.89 -4.358,9.935 a 64.73,64.73 0 0 1 -2.97,4.625 c 12.61,6.737 24.022,11.983 30.12,12.506 l -1.54,17.934 c -13.374,-1.148 -27.19,-8.556 -41.235,-16.645 a 69.874,69.874 0 0 1 -5.22,4.035 c -5.618,3.903 -12.543,7.623 -20.044,10.5 2.925,14.92 3.148,30.108 2.94,41.203 l -17.997,-0.337 c 0.19,-10.045 -0.234,-23.675 -2.45,-36.112 -5.99,0.925 -12.046,1.06 -17.944,-0.383 -0.09,-0.02 -0.177,-0.046 -0.266,-0.07 0.083,13.554 -1.982,28.058 -11.95,42.374 l -14.77,-10.285 c 10.87,-15.612 8.98,-30.818 7.804,-49.224 -1.566,-5.005 -1.475,-10.304 -0.23,-14.988 1.682,-6.33 5.1,-11.886 9.187,-16.945 8.176,-10.118 19.228,-18.362 28.807,-23.49 11.795,-5.06 22.388,-9.09 33.75,-9.12 z m -0.665,18.012 c -0.64,0.012 -1.308,0.047 -2.004,0.102 -7.502,0.613 -16.64,3.695 -22.588,6.88 -7.375,3.946 -17.25,11.444 -23.3,18.93 -3.023,3.743 -5.045,7.453 -5.79,10.254 -1.15,5.08 2.084,9.024 6.29,10.087 3.02,0.738 7.46,0.737 12.396,-0.164 9.87,-1.802 21.545,-7.135 28.553,-12.004 5.274,-3.666 11.863,-10.37 15.556,-16.722 3.85,-12.748 0.492,-17.54 -9.112,-17.363 z m 259.953,37.65 12.642,62.508 -54.782,40.737 33.01,-56.89 z m -61.31,20.75 3.182,17.717 -66.13,11.883 -9.65,25.186 -25.25,11.934 21.725,-53.04 z m -11.63,64.83 16.3,7.63 c -7.236,15.46 -9.834,23.982 -8.974,33.36 6.018,0.288 12.134,0.976 18.222,1.934 l -2.796,17.78 c -20.668,-3.25 -40.167,-1.63 -49.913,5.192 -4.873,3.41 -7.866,7.633 -9.088,14.89 -1.223,7.254 -0.21,17.796 4.873,31.997 -14.763,5.31 -28.485,9.344 -43.684,14.436 l -5.716,-17.068 27.455,-9.197 c -1.625,-8.534 -1.85,-16.21 -0.678,-23.16 1.844,-10.947 7.55,-19.874 15.334,-25.773 -2.568,-5.383 -5.2,-11.09 -7.092,-17.383 -2.792,-9.287 -0.37,-27.64 -0.56,-27.658 0,0 15.726,15.586 17.798,22.477 1.373,4.567 3.592,9.417 6.01,14.548 3.83,-1.158 7.836,-1.963 11.965,-2.47 -0.69,-12.83 3.032,-25.492 10.543,-41.536 z m -145.416,3.946 -21.852,46.684 -1.49,65.057 -17.38,-68.036 c 0,0 36.75,-43.703 40.722,-43.703 z m 38.574,139.85 a 84.97,84.97 0 0 1 7.69,0.32 c 13.628,1.172 27.29,5.13 40.73,9.132 l -5.137,17.252 c -13.297,-3.96 -26.01,-7.494 -37.134,-8.45 -5.48,-0.47 -10.477,-0.36 -15.1,0.508 L 245.18,416.594 c 6.827,-2.917 14.02,-4.278 21.263,-4.56 a 75.72,75.72 0 0 1 2.568,-0.054 z m -38.95,15.075 13.983,13.3 c -10.892,17.037 -14.518,26.755 -31.18,37.32 1.64,-5.576 3.002,-16.252 5.88,-26.984 2.176,-8.11 5.298,-16.793 11.32,-23.635 z"
       fill="#ffffff"
       fill-opacity="1"
       id="path824" />
  </g>
  <g
     font-family="Arial, Helvetica, sans-serif"
     font-size="240px"
     font-style="normal"
     font-weight="bold"
     text-anchor="middle"
     text-decoration=" rgba(0, 0, 0, 1)"
     class=""
     transform="translate(199.035,263.693)"
     id="g838">
    <g
       id="g836">
      <text
         stroke="rgba(255, 255, 255, 1)"
         stroke-width="30"
         id="text830"><tspan
           x="0"
           y="0"
           id="tspan828">A</tspan></text>
      <text
         fill="rgba(0, 0, 0, 1)"
         id="text834"><tspan
           x="0"
           y="0"
           id="tspan832">A</tspan></text>
    </g>
  </g>
</svg>
