<svg xmlns="http://www.w3.org/2000/svg" width="512" height="512"><path d="M0 0h512v512H0z"/><path fill="#fff" d="M256 25C128.316 25 25 128.316 25 256s103.316 231 231 231 231-103.316 231-231S383.684 25 256 25zm0 30c110.903 0 201 90.097 201 201s-90.097 201-201 201S55 366.903 55 256 145.097 55 256 55zm-4.365 18.057c-.433.01-.863.026-1.295.04.43-.014.862-.03 1.295-.04zm8.73 0c.433.01.864.026 1.295.04-.432-.014-.862-.03-1.295-.04zm-13.158.158a165.632 165.632 0 00.001 0zm17.586 0a165.632 165.632 0 01-.001 0zm-21.963.26zm26.34 0zm-30.787.37c-.462.045-.925.082-1.385.13.46-.048.923-.085 1.385-.13zm35.234 0c.462.045.925.082 1.385.13-.46-.048-.923-.085-1.385-.13zm-40.803.608c-.295.037-.588.08-.882.12.294-.04.587-.083.882-.12zm46.372 0c.295.037.588.08.882.12-.294-.04-.587-.083-.882-.12zm-50.56.58c-.504.075-1.005.157-1.507.237.5-.08 1.002-.162 1.505-.237zm54.75 0c.502.075 1.003.157 1.505.237-.5-.08-1.002-.162-1.505-.237zm-59.022.694zm63.292 0zm-67.44.773c-.544.108-1.09.212-1.634.324.544-.112 1.09-.216 1.635-.324zm71.587 0c.545.108 1.09.212 1.635.324-.544-.112-1.09-.216-1.635-.324zm-76.043.938c-.415.092-.832.18-1.246.275.414-.096.83-.183 1.246-.275zm80.5 0c.415.092.832.18 1.246.275-.414-.096-.83-.183-1.246-.275zm-85.62 1.218c-.552.14-1.1.29-1.648.436.55-.145 1.096-.296 1.647-.436zm90.74 0c.552.14 1.1.29 1.648.436-.55-.145-1.096-.296-1.647-.436zm-94.784 1.082zm98.828 0zm-102.967 1.21c-.514.158-1.028.315-1.54.476.51-.16 1.026-.318 1.54-.475zm107.106 0c.514.158 1.03.315 1.54.476a250.49 250.49 0 00-1.54-.475zm-111.305 1.34c-.417.137-.836.272-1.252.413.416-.14.835-.275 1.252-.413zm115.504 0c.417.137.836.272 1.252.413-.416-.14-.835-.275-1.252-.413zm-120.55 1.745c-.422.154-.84.318-1.26.475.42-.157.838-.32 1.26-.475zm125.597 0c.42.154.837.318 1.257.475-.42-.157-.837-.32-1.258-.475zm-129.44 1.455c-.538.21-1.073.427-1.61.643.536-.214 1.073-.43 1.61-.642zm133.28 0c.537.21 1.074.428 1.61.643-.537-.215-1.072-.43-1.61-.642zM185.595 87.01c-.615.256-1.23.515-1.84.777.61-.263 1.225-.52 1.84-.777zm140.808 0zm-144.533 1.6c-.592.264-1.185.526-1.774.794.59-.268 1.182-.53 1.775-.793zm148.26 0c.592.264 1.185.526 1.774.794-.59-.268-1.182-.53-1.775-.793zm-152.267 1.835c-.494.234-.99.462-1.482.7.492-.238.99-.466 1.483-.7zm156.274 0c.494.234.99.462 1.482.7-.492-.238-.99-.466-1.483-.7zM172.965 92.84c-.51.26-1.017.53-1.526.795.508-.265 1.013-.535 1.525-.795zm166.07 0c.512.26 1.017.53 1.526.795-.508-.265-1.014-.535-1.525-.795zm-169.678 1.892a156.588 156.588 0 00.001 0zm173.286 0a156.588 156.588 0 01-.001 0zm-176.805 1.946zm180.324 0zm-183.812 2.03c-.59.35-1.183.7-1.77 1.06.587-.36 1.18-.71 1.77-1.06zm187.3 0c.59.35 1.183.7 1.77 1.06-.587-.36-1.18-.71-1.77-1.06zm-190.69 2.07a177.851 177.851 0 00.001 0zm194.08 0a173.08 173.08 0 01-.001 0zm-198.84 3.076c-.684.46-1.363.928-2.042 1.396.68-.468 1.358-.937 2.043-1.396zm203.6 0c.685.46 1.363.928 2.042 1.396-.68-.468-1.358-.937-2.043-1.396zm-206.845 2.23zm210.09 0zm-213.336 2.332a187.452 187.452 0 000 .001zm216.58 0a187.452 187.452 0 010 .001zm-219.513 2.2a181.334 181.334 0 000-.001zm-4.923 3.896c-.674.553-1.337 1.117-2.002 1.68.665-.563 1.328-1.127 2.002-1.68zm227.37-3.897a184.484 184.484 0 01-.001 0zm4.922 3.897c.674.553 1.337 1.117 2.002 1.68-.665-.563-1.328-1.127-2.002-1.68zm-235.253 2.49a177.912 177.912 0 000-.001zm238.214 0a198.275 198.275 0 010-.001zm-241.115 2.543a190.133 190.133 0 000-.001zm244.016 0a201.83 201.83 0 010-.001zm-246.817 2.56a178.877 178.877 0 00.001 0zm-2.104 1.99a182.942 182.942 0 000-.001zm251.723-1.99a178.877 178.877 0 01-.001 0zm2.104 1.99a183.625 183.625 0 010-.001zm-261.55 7.89a196.547 196.547 0 000-.001zm269.27 0a179.578 179.578 0 01.002-.001zm-271.79 2.798zm274.312 0zm-276.676 2.725zm279.04 0zm-287.786 11.135zm296.532 0zm-298.698 3.054zm-7.646 11.985zm308.51-11.985zm7.646 11.985zm-318.045 3.312a173.573 173.573 0 000 .001zm-1.65 3.027a182.217 182.217 0 00.001.001zm-7.752 16.505a182.026 182.026 0 00.001.001zm-6.107 17.356C75.636 220.397 73 237.886 73 256c0 .62.017 1.235.023 1.854 144.706 30.36 121.43 62.398 148.02 177.806A184.363 184.363 0 00256 439c11.96 0 23.642-1.157 34.957-3.34 26.59-115.408 3.314-147.445 148.02-177.806.006-.62.023-1.234.023-1.854 0-18.115-2.636-35.604-7.523-52.12C346.67 182.72 301.07 172 256 172c-45.07 0-90.67 10.72-175.477 31.88zm350.954 0a181.364 181.364 0 00-.001.001zm-6.108-17.355a182.223 182.223 0 00-.001.001zm-7.753-16.504a177.2 177.2 0 000 .001zm-126.66 265.64a174.912 174.912 0 00.001 0zm3.914-.8a181.572 181.572 0 000 .002zm26.48-7.858zm3.638-1.434zM221.043 435.66a174.912 174.912 0 01-.001 0zm-3.914-.8a181.61 181.61 0 010 .002zm-26.48-7.858zm-3.638-1.434zM256 183c40.21 0 73 32.79 73 73s-32.79 73-73 73-73-32.79-73-73 32.79-73 73-73zm0 18c-30.482 0-55 24.518-55 55s24.518 55 55 55 55-24.518 55-55-24.518-55-55-55zM73.023 257.89a184.922 184.922 0 00.001 0zm1.858 24.39a192.677 192.677 0 00.001-.002zm364.097-24.39a184.91 184.91 0 01-.001 0zm-1.858 24.39a192.677 192.677 0 01-.001-.002zm-361.61 4.05zm.687 3.875zm5.926 23.037zM436.49 286.33zm-.687 3.875zm-5.926 23.037zM83.4 316.998zm1.332 3.652zm343.868-3.652zm-1.332 3.652zM94.365 341.945zm323.27 0zm-321.38 3.46a176.762 176.762 0 00.002 0zm1.886 3.284a191.057 191.057 0 00.001-.001zm1.993 3.312zm10.963 15.846zm304.648-22.442a174.257 174.257 0 01-.001-.001zm-1.885 3.283a191.057 191.057 0 01-.001-.001zM411.866 352zm-10.963 15.846zm-287.384 3.068zm284.96 0zm-282.505 2.977zm18.722 19.187zm2.905 2.518zm21.77 15.88a201.122 201.122 0 00-.002 0zm236.653-37.585zm-18.722 19.187zm-2.905 2.518zm-21.77 15.88a194.358 194.358 0 01.002 0z"/></svg>
