<svg xmlns="http://www.w3.org/2000/svg" viewBox="0 0 512 512" style="height:512px;width:512px"><path fill="#000" fill-opacity="1" d="M0 0h512v512H0z"/><g><path fill="#fff" fill-opacity="1" d="M239.283 27.155l-29.615 59.229-12.412-37.23L153 71.281v20.125l33.742-16.87 19.59 58.767 34.387-68.77 47.998 80 35.308-70.613L359 91.407V71.282l-43.025-21.511-28.694 57.384zM89 70.845v46h46v-46zm288 0v46h46v-46zm-304 64v302h94v-112h178v112h94v-302h-79.973l-32 128H184.973l-32-128zm101.027 10l4.5 18h154.946l4.5-18zm8.5 34l4.5 18h137.946l4.5-18zm208.473 27c13.7 0 25 11.3 25 25s-11.3 25-25 25-25-11.3-25-25 11.3-25 25-25zm-336 .816l-30 20v146.184h30zm136.027 6.184l4.5 18h120.946l4.5-18zm199.973 57c13.7 0 25 11.3 25 25s-11.3 25-25 25-25-11.3-25-25 11.3-25 25-25zm66 57v46h30v-46zm-66 7c13.7 0 25 11.3 25 25s-11.3 25-25 25-25-11.3-25-25 11.3-25 25-25zm-206 9v46h17.438L224 345.72l34.467 68.931 9.804-9.806H327v-62zm39 43.127l-10.438 20.873H185v46h142v-30h-51.271l-22.194 22.193zm233 4.873v46h30v-46zm-390 64l-40 30h108v-30zm310 0v30h108l-40-30z" transform="translate(0,0)"/></g><g><g transform="translate(256,256)"><circle cx="128" cy="128" r="128" fill="#000" fill-opacity="1"/><circle cx="128" cy="128" r="101" fill="#000" fill-opacity="1" stroke="#d0021b" stroke-opacity="1" stroke-width="18"/><path fill="#d0021b" fill-opacity="1" d="M128 200.732a72.575 72.575 0 0 1-39.958-12.04l22.855-34.618c4.92 3.27 10.804 5.188 17.103 5.188 6.305 0 12.192-1.92 17.115-5.196l22.851 34.612A72.574 72.574 0 0 1 128 200.732zm0-60.132c-6.982 0-12.441-5.46-12.441-12.441 0-6.982 5.46-12.442 12.441-12.442 6.982 0 12.441 5.46 12.441 12.442 0 6.981-5.46 12.44-12.441 12.44zm-72.357-8.094a72.574 72.574 0 0 1-.217-4.347A72.574 72.574 0 0 1 95.581 63.32l18.528 37.056c-10.169 5.139-17.212 15.697-17.212 27.783 0 .627.025 1.248.063 1.867zm144.777-.006l-41.378-2.482c.037-.616.061-1.235.061-1.86 0-12.085-7.043-22.643-17.212-27.781l18.555-37.11a72.574 72.574 0 0 1 40.128 64.892 72.627 72.627 0 0 1-.154 4.341z"/></g></g></svg>