<svg style="height: 512px; width: 512px;" xmlns="http://www.w3.org/2000/svg" width="512" height="512"><path d="M0 0h512v512H0z" fill="#000" fill-opacity="1"></path><g class="" style="" transform="translate(0,0)"><path d="M266 51.727c-39.32 0-71 31.68-71 71 0 39.319 31.68 71.002 71 71.002s71-31.683 71-71.002c0-39.32-31.68-71-71-71zm-144 32c-30.483 0-55 24.517-55 55 0 30.482 24.517 55.002 55 55.002s55-24.52 55-55.002c0-30.483-24.517-55-55-55zm-23 128v110.002h238V211.727zm350 4.648l-94 40.285v20.133l94 40.285zm-386 2.352v32h18v-32zm113 121.002v17.998h13.012l-51.123 136.275h19.222l51.507-136.275.382 136.275h18l.382-136.275 51.507 136.275h19.222l-51.123-136.275H260v-17.998c-28.003-.003-55.997 0-84 0z" fill="#ffffff" fill-opacity="1"></path></g><g font-family="Arial, Helvetica, sans-serif" font-size="120" font-style="normal" font-weight="bold" text-anchor="middle" text-decoration=" rgba(72, 186, 255, 1)" class="" style="" transform="translate(275,459)"><g transform="translate(0, 0) scale(0.8, 0.8) rotate(0, 0, 0) skewX(0) skewY(0)"><text stroke="rgba(0, 0, 0, 1)" stroke-width="30"><tspan x="0" y="0">hologram</tspan></text><text fill="rgba(72, 186, 255, 1)"><tspan x="0" y="0">hologram</tspan></text></g></g></svg>
