<?xml version="1.0" encoding="UTF-8" standalone="no"?>
<svg
   viewBox="0 0 447.64999 448"
   version="1.1"
   id="svg828"
   sodipodi:docname="jupiter.svg"
   width="447.64999"
   height="448"
   inkscape:version="1.1.1 (c3084ef, 2021-09-22)"
   xmlns:inkscape="http://www.inkscape.org/namespaces/inkscape"
   xmlns:sodipodi="http://sodipodi.sourceforge.net/DTD/sodipodi-0.dtd"
   xmlns="http://www.w3.org/2000/svg"
   xmlns:svg="http://www.w3.org/2000/svg">
  <defs
     id="defs832" />
  <sodipodi:namedview
     id="namedview830"
     pagecolor="#ffffff"
     bordercolor="#666666"
     borderopacity="1.0"
     inkscape:pageshadow="2"
     inkscape:pageopacity="0.0"
     inkscape:pagecheckerboard="0"
     showgrid="false"
     fit-margin-top="0"
     fit-margin-left="0"
     fit-margin-right="0"
     fit-margin-bottom="0"
     inkscape:zoom="1.7050781"
     inkscape:cx="48.38488"
     inkscape:cy="230.78121"
     inkscape:window-width="1312"
     inkscape:window-height="1081"
     inkscape:window-x="80"
     inkscape:window-y="25"
     inkscape:window-maximized="0"
     inkscape:current-layer="svg828" />
  <g
     class=""
     id="g826"
     transform="translate(-32.175,-32)">
    <path
       d="M 256.175,32 A 224,224 0 0 0 156.11,55.68 H 355.82 A 224,224 0 0 0 256.174,32 Z M 104.247,91.68 A 224,224 0 0 0 73.579,126.52 L 429.061,113.826 A 224,224 0 0 0 407.996,91.68 H 104.246 Z M 54.093,160 a 224,224 0 0 0 -6.987,16.303 l 420.797,7.41 A 224,224 0 0 0 458.313,160 Z m -13.037,34.2 a 224,224 0 0 0 -6.168,28.894 l 441.386,-8.024 a 224,224 0 0 0 -2.976,-13.257 z M 478.749,233.027 32.92,241.13 a 224,224 0 0 0 -0.745,14.87 224,224 0 0 0 1.43,23 h 251.5 c -3.19,1.413 -6.214,3.02 -9.024,4.816 -5.576,3.568 -10.425,8.035 -14.005,13.184 H 36.09 a 224,224 0 0 0 7.93,30 h 213.44 c 3.102,9.023 10.002,16.672 18.62,22.184 3.162,2.023 6.593,3.802 10.235,5.336 l -225.2,11.058 a 224,224 0 0 0 11.017,17.67 l 359.785,11.244 a 224,224 0 0 0 29.268,-48.56 l -99.652,4.894 c 0.93,-0.53 1.844,-1.074 2.733,-1.642 8.615,-5.512 15.516,-13.16 18.618,-22.184 h 85.53 a 224,224 0 0 0 7.82,-30 H 378.27 c -3.58,-5.15 -8.428,-9.616 -14.005,-13.184 -2.812,-1.797 -5.834,-3.403 -9.027,-4.816 H 478.96 a 224,224 0 0 0 0.865,-15.945 l -75.808,-10.918 c 0,0 48.452,-4.13 75.54,-6.344 a 224,224 0 0 0 -0.808,-12.766 z M 320.174,290 c 13.77,0 26.1,3.674 34.394,8.98 8.292,5.303 12.105,11.52 12.105,17.52 0,6 -3.813,12.217 -12.106,17.52 -8.294,5.306 -20.625,8.98 -34.395,8.98 -13.77,0 -26.102,-3.674 -34.395,-8.98 -8.293,-5.303 -12.105,-11.52 -12.105,-17.52 0,-6 3.812,-12.217 12.105,-17.52 8.293,-5.306 20.624,-8.98 34.395,-8.98 z M 96.493,413 a 224,224 0 0 0 18.897,17 h 281.693 a 224,224 0 0 0 18.59,-17 z m 82.537,53 a 224,224 0 0 0 77.145,14 224,224 0 0 0 77.488,-14 z"
       fill="#ffffff"
       fill-opacity="1"
       id="path824" />
  </g>
</svg>
