<svg xmlns="http://www.w3.org/2000/svg" width="512" height="512"><path d="M0 0h512v512H0z"/><path fill="#fff" d="M71 32v135h18V32H71zm256 0v135h18V32h-18zm-208 95.604V167h18v-39.396h-18zm256 0V167h18v-39.396h-18zM57 185v99.27l16 16V487h110V300.27l16-16V185H57zm256 0v99.27l16 16V487h110V300.27l16-16V185H313zm-96 7v80h16.432v-80H217zm256 0v80h16.432v-80H473zm-393 7h96v18H80v-18zm256 0h96v18h-96v-18zM80 231h96v18H80v-18zm256 0h96v18h-96v-18zM80 263h96v18H80v-18zm256 0h96v18h-96v-18zm-224 41a24 24 0 0124 24 24 24 0 01-24 24 24 24 0 01-24-24 24 24 0 0124-24zm256 0a24 24 0 0124 24 24 24 0 01-24 24 24 24 0 01-24-24 24 24 0 0124-24z"/><g font-family="Arial, Helvetica, sans-serif" font-size="120" font-weight="bold" text-anchor="middle" text-decoration="rgba(72, 186, 255, 1)"><text stroke="rgba(0, 0, 0, 1)" stroke-width="30" transform="matrix(.8 0 0 .8 268 466)"><tspan x="0" y="0">long</tspan></text><text fill="rgba(72, 186, 255, 1)" transform="matrix(.8 0 0 .8 268 466)"><tspan x="0" y="0">long</tspan></text></g></svg>
