<?xml version="1.0" encoding="UTF-8" standalone="no"?>
<svg
   viewBox="0 0 380.10101 415.98126"
   version="1.1"
   id="svg828"
   sodipodi:docname="perspective-dice-six-faces-random.svg"
   width="380.10101"
   height="415.98126"
   inkscape:version="1.1.1 (c3084ef, 2021-09-22)"
   xmlns:inkscape="http://www.inkscape.org/namespaces/inkscape"
   xmlns:sodipodi="http://sodipodi.sourceforge.net/DTD/sodipodi-0.dtd"
   xmlns="http://www.w3.org/2000/svg"
   xmlns:svg="http://www.w3.org/2000/svg">
  <defs
     id="defs832" />
  <sodipodi:namedview
     id="namedview830"
     pagecolor="#ffffff"
     bordercolor="#666666"
     borderopacity="1.0"
     inkscape:pageshadow="2"
     inkscape:pageopacity="0.0"
     inkscape:pagecheckerboard="0"
     showgrid="false"
     fit-margin-top="0"
     fit-margin-left="0"
     fit-margin-right="0"
     fit-margin-bottom="0"
     inkscape:zoom="1.7050781"
     inkscape:cx="14.368843"
     inkscape:cy="218.46506"
     inkscape:window-width="1312"
     inkscape:window-height="1081"
     inkscape:window-x="80"
     inkscape:window-y="25"
     inkscape:window-maximized="0"
     inkscape:current-layer="svg828" />
  <g
     class=""
     id="g826"
     transform="translate(-66.006,-44.764)">
    <path
       d="m 255.76,44.764 c -6.176,0 -12.353,1.384 -17.137,4.152 L 85.87,137.276 c -9.57,5.536 -9.57,14.29 0,19.826 l 152.753,88.36 c 9.57,5.536 24.703,5.536 34.272,0 l 152.753,-88.36 c 9.57,-5.535 9.57,-14.29 0,-19.825 L 272.895,48.917 c -4.785,-2.77 -10.96,-4.153 -17.135,-4.153 z m -0.824,53.11 c 9.013,0.097 17.117,2.162 24.31,6.192 4.92,2.758 8.143,5.903 9.666,9.438 1.473,3.507 1.56,8.13 0.26,13.865 l -1.6,5.706 c -1.06,4.083 -1.28,7.02 -0.66,8.81 0.57,1.764 1.983,3.278 4.242,4.544 l 3.39,1.898 -33.235,18.62 -3.693,-2.067 c -4.118,-2.306 -6.744,-4.912 -7.883,-7.82 -1.188,-2.935 -0.99,-7.603 0.594,-14.005 l 1.524,-5.748 c 0.887,-3.423 0.973,-6.23 0.26,-8.418 -0.653,-2.224 -2.134,-3.983 -4.444,-5.277 -3.515,-1.97 -7.726,-2.676 -12.63,-2.123 -4.956,0.526 -10.072,2.268 -15.35,5.225 -4.972,2.785 -9.487,6.272 -13.55,10.46 -4.112,4.162 -7.64,8.924 -10.587,14.288 L 171.9,138.21 c 5.318,-5.34 10.543,-10.01 15.676,-14.013 5.134,-4 10.554,-7.6 16.262,-10.8 14.976,-8.39 28.903,-13.38 41.78,-14.967 3.208,-0.404 6.315,-0.59 9.32,-0.557 z m 50.757,56.7 26.815,15.024 -33.235,18.62 -26.816,-15.023 33.236,-18.62 z M 75.67,173.84 c -5.753,-0.155 -9.664,4.336 -9.664,12.28 v 157.696 c 0,11.052 7.57,24.163 17.14,29.69 l 146.93,84.848 c 9.57,5.526 17.14,1.156 17.14,-9.895 V 290.76 c 0,-11.052 -7.57,-24.16 -17.14,-29.688 L 83.146,176.225 c -2.69,-1.555 -5.225,-2.327 -7.476,-2.387 z m 360.773,0.002 c -2.25,0.06 -4.783,0.83 -7.474,2.385 l -146.935,84.847 c -9.57,5.527 -17.14,18.638 -17.14,29.69 v 157.7 c 0,11.05 7.57,15.418 17.14,9.89 L 428.97,373.51 c 9.57,-5.527 17.137,-18.636 17.137,-29.688 v -157.7 c 0,-7.942 -3.91,-12.432 -9.664,-12.278 z m -321.545,63.752 c 6.553,1.366 12.538,3.038 17.954,5.013 5.415,1.976 10.643,4.417 15.68,7.325 13.213,7.63 23.286,16.324 30.218,26.082 6.932,9.7 10.398,20.046 10.398,31.04 0,5.64 -1.055,10.094 -3.168,13.364 -2.112,3.212 -5.714,5.91 -10.804,8.094 l -5.2,1.92 c -3.682,1.442 -6.093,2.928 -7.23,4.46 -1.137,1.472 -1.705,3.502 -1.705,6.092 v 3.885 l -29.325,-16.933 v -4.23 c 0,-4.72 0.892,-8.376 2.68,-10.97 1.787,-2.652 5.552,-5.14 11.292,-7.467 l 5.2,-2.006 c 3.087,-1.21 5.334,-2.732 6.742,-4.567 1.46,-1.803 2.192,-4.028 2.192,-6.676 0,-4.027 -1.3,-7.915 -3.9,-11.66 -2.6,-3.804 -6.227,-7.05 -10.885,-9.74 -4.387,-2.532 -9.126,-4.29 -14.217,-5.272 -5.09,-1.04 -10.398,-1.254 -15.922,-0.645 v -27.11 z m 269.54,8.607 c 1.522,0 2.932,0.165 4.232,0.493 6.932,1.696 10.398,8.04 10.398,19.034 0,5.64 -1.056,11.314 -3.168,17.023 -2.112,5.65 -5.714,12.507 -10.804,20.568 l -5.2,7.924 c -3.682,5.695 -6.093,9.963 -7.23,12.807 -1.137,2.785 -1.705,5.473 -1.705,8.063 v 3.885 l -29.325,16.932 v -4.23 c 0,-4.72 0.894,-9.41 2.68,-14.067 1.79,-4.715 5.552,-11.55 11.292,-20.504 l 5.2,-8.01 c 3.087,-4.776 5.334,-8.894 6.742,-12.354 1.46,-3.492 2.192,-6.562 2.192,-9.21 0,-4.028 -1.3,-6.414 -3.898,-7.158 -2.6,-0.8 -6.23,0.142 -10.887,2.83 -4.387,2.533 -9.124,6.25 -14.215,11.145 -5.09,4.84 -10.398,10.752 -15.922,17.74 v -27.11 c 6.553,-6.2 12.536,-11.44 17.95,-15.718 5.417,-4.278 10.645,-7.87 15.68,-10.777 10.738,-6.2 19.4,-9.302 25.99,-9.307 z m -252.723,94.515 29.326,16.93 v 30.736 l -29.325,-16.93 v -30.735 z m 239.246,8.06 v 30.735 l -29.325,16.93 v -30.733 l 29.326,-16.932 z"
       fill="#ffffff"
       fill-opacity="1"
       id="path824" />
  </g>
</svg>
