<?xml version="1.0" encoding="UTF-8" standalone="no"?>
<svg
   viewBox="0 0 403.52399 474.6684"
   version="1.1"
   id="svg923"
   sodipodi:docname="pirate-skull.svg"
   width="403.52399"
   height="474.6684"
   inkscape:version="1.1.1 (c3084ef, 2021-09-22)"
   xmlns:inkscape="http://www.inkscape.org/namespaces/inkscape"
   xmlns:sodipodi="http://sodipodi.sourceforge.net/DTD/sodipodi-0.dtd"
   xmlns="http://www.w3.org/2000/svg"
   xmlns:svg="http://www.w3.org/2000/svg">
  <defs
     id="defs927" />
  <sodipodi:namedview
     id="namedview925"
     pagecolor="#ffffff"
     bordercolor="#666666"
     borderopacity="1.0"
     inkscape:pageshadow="2"
     inkscape:pageopacity="0.0"
     inkscape:pagecheckerboard="0"
     showgrid="false"
     fit-margin-top="0"
     fit-margin-left="0"
     fit-margin-right="0"
     fit-margin-bottom="0"
     inkscape:zoom="1.7050781"
     inkscape:cx="26.684994"
     inkscape:cy="243.68385"
     inkscape:window-width="1296"
     inkscape:window-height="1081"
     inkscape:window-x="77"
     inkscape:window-y="25"
     inkscape:window-maximized="0"
     inkscape:current-layer="svg923" />
  <g
     class=""
     id="g921"
     transform="translate(-54.193,-19.2)">
    <path
       d="m 255.95,19.2 c -58.685,0 -101.737,17.664 -132.97,45.68 48.263,68.21 113.714,107.422 171.94,118.15 32.58,6 62.737,3.08 86.443,-8.014 23.35,-10.928 40.7,-29.45 49.282,-56.862 -5.45,-10.763 -11.76,-20.916 -18.997,-30.29 -31.994,-41.443 -81.43,-68.663 -155.7,-68.663 z M 109.587,78.298 c -3.422,3.823 -6.677,7.784 -9.764,11.875 -30.746,40.752 -44.657,94.833 -45.63,147.937 58.72,26.42 90.817,62.647 101.806,101.417 30.31,19.97 69.622,29.4 108.22,27.975 33.805,-1.247 66.84,-10.815 92.688,-27.922 10.205,-38.25 42.34,-73.28 100.81,-101.193 -0.54,-33.675 -5.868,-66.638 -16.704,-96.28 -10.685,20.984 -27.018,36.954 -46.848,47.395 5.5,17.523 2.04,35.76 -6.05,50.85 -8.78,16.38 -22.906,29.666 -39.145,36.173 -16.24,6.508 -35.77,5.343 -50.11,-8.22 -13.924,-13.172 -22.515,-35.957 -24.258,-70.71 -58.037,-15.36 -118.86,-55.217 -165.014,-119.298 z m 41.916,97.803 c 5.71,20.964 31.71,36.888 63.072,36.888 6.97,0 13.348,-0.932 19.635,-2.38 0.038,0.598 0,1.183 0,1.785 0,24.497 -23.654,44.62 -52.956,44.62 -29.302,0 -52.96,-20.125 -52.96,-44.62 0,-15.31 9.09,-28.315 23.208,-36.29 l 0.002,-0.003 z m 108.422,74.107 c 14.6,29.094 23.808,58.187 31.467,87.28 -20.978,-7.523 -41.956,-6.637 -62.936,0 5.666,-29.093 17.082,-58.186 31.47,-87.28 z m 93.416,113.254 c -9.875,5.25 -20.36,9.583 -31.248,13.017 v 44.47 c 13.1,-4.626 25.368,-10.682 36.3,-18.12 -3.742,-13.045 -5.556,-26.223 -5.052,-39.366 z m -193.162,0.224 c 0.912,13.586 -0.507,27.122 -3.846,40.312 10.74,7.033 22.603,12.742 35.156,17.123 v -44.5 c -10.862,-3.4 -21.366,-7.702 -31.31,-12.936 z m 143.226,17.71 c -12.18,2.616 -24.69,4.192 -37.27,4.723 v 45.545 c 12.66,-0.585 25.197,-2.337 37.27,-5.217 V 381.395 Z M 364.852,421 c -28.772,18.386 -64.12,28.102 -99.942,29.424 -40.16,1.482 -81.158,-7.587 -114.527,-28.06 -4.88,12.362 -11.358,24.27 -19.074,35.445 22.273,21.468 70.715,35.49 121.31,36.042 50.88,0.553 103.302,-12.087 132.718,-36.016 -8.24,-11.97 -15.18,-24.302 -20.486,-36.836 z"
       fill="#ffffff"
       fill-opacity="1"
       id="path919" />
  </g>
</svg>
