<svg xmlns="http://www.w3.org/2000/svg" width="512" height="512"><path fill="#000" fill-opacity="1" d="M0 0h512v512H0z"/><g><path fill="#fff" fill-opacity="1" d="M372.48 31.215c-77.65 0-116.48 65.73-116.48 65.73s-38.83-65.72-116.48-65.72c-37.14 0-107.77 33.72-107.77 125.13 0 161.24 224.25 324.43 224.25 324.43s224.25-163.19 224.25-324.43c0-91.42-70.63-125.13-107.77-125.14zm-145.492 115.02h60.698v79.415h79.238v60.7h-79.238v79.884h-60.698V286.35h-80.064v-60.7h80.064z" transform="translate(0,0)"/></g><g><g transform="translate(256,256)"><circle cx="128" cy="128" r="128" fill="#000" fill-opacity="1"/><circle cx="128" cy="128" r="101" fill="#000" fill-opacity="1" stroke="#fff" stroke-opacity="1" stroke-width="18"/><path fill="#fff" fill-opacity="1" d="M128 200.732a72.575 72.575 0 0 1-39.958-12.04l22.855-34.618c4.92 3.27 10.804 5.188 17.103 5.188 6.305 0 12.192-1.92 17.115-5.196l22.851 34.612A72.574 72.574 0 0 1 128 200.732zm0-60.132c-6.982 0-12.441-5.46-12.441-12.441 0-6.982 5.46-12.442 12.441-12.442 6.982 0 12.441 5.46 12.441 12.442 0 6.981-5.46 12.44-12.441 12.44zm-72.357-8.094a72.574 72.574 0 0 1-.217-4.347A72.574 72.574 0 0 1 95.581 63.32l18.528 37.056c-10.169 5.139-17.212 15.697-17.212 27.783 0 .627.025 1.248.063 1.867zm144.777-.006l-41.378-2.482c.037-.616.061-1.235.061-1.86 0-12.085-7.043-22.643-17.212-27.781l18.555-37.11a72.574 72.574 0 0 1 40.128 64.892 72.627 72.627 0 0 1-.154 4.341z"/></g></g></svg>
