<?xml version="1.0" encoding="UTF-8" standalone="no"?>
<svg
   viewBox="0 0 433.37 455.62"
   version="1.1"
   id="svg828"
   sodipodi:docname="scout-ship.svg"
   width="433.37"
   height="455.62"
   inkscape:version="1.1.1 (c3084ef, 2021-09-22)"
   xmlns:inkscape="http://www.inkscape.org/namespaces/inkscape"
   xmlns:sodipodi="http://sodipodi.sourceforge.net/DTD/sodipodi-0.dtd"
   xmlns="http://www.w3.org/2000/svg"
   xmlns:svg="http://www.w3.org/2000/svg">
  <defs
     id="defs832" />
  <sodipodi:namedview
     id="namedview830"
     pagecolor="#ffffff"
     bordercolor="#666666"
     borderopacity="1.0"
     inkscape:pageshadow="2"
     inkscape:pageopacity="0.0"
     inkscape:pagecheckerboard="0"
     showgrid="false"
     fit-margin-top="0"
     fit-margin-left="0"
     fit-margin-right="0"
     fit-margin-bottom="0"
     inkscape:zoom="1.7050781"
     inkscape:cx="41.347079"
     inkscape:cy="234.8866"
     inkscape:window-width="1312"
     inkscape:window-height="1081"
     inkscape:window-x="80"
     inkscape:window-y="25"
     inkscape:window-maximized="0"
     inkscape:current-layer="svg828" />
  <g
     class=""
     id="g826"
     transform="translate(-39.33,-28.18)">
    <path
       d="M 203.2,28.18 C 137.2,69.46 103.8,127.8 83.44,189 63.06,250.1 55.05,314.3 39.33,369.3 l 17.3,5 C 72.91,317.3 80.9,253.5 100.5,194.6 120.2,135.8 150.8,82.16 212.8,43.45 Z m 105.6,0 -9.6,15.27 c 62,38.71 92.6,92.35 112.3,151.15 19.6,58.9 27.6,122.7 43.8,179.7 l 17.4,-5 C 456.9,314.3 448.9,250.1 428.5,189 408.2,127.8 374.8,69.46 308.8,28.18 Z M 189,81.28 c -19.3,16.09 -39.5,43.92 -54.9,76.42 -14.5,30.6 -24.8,65.3 -28,98 19.6,-13.4 38.3,-15.9 54.7,-10.4 11.9,4 22.3,11.1 32,19.5 C 187.1,244 181.7,224 177.3,206.2 171.2,181.7 167,161.8 167,147.8 v -3.7 l 2.6,-2.7 c 8.6,-8.6 21.9,-22.5 38.3,-33.6 -7,-7.7 -13.2,-16.32 -18.9,-26.52 z m 134,0 c -5.7,10.19 -11.9,18.82 -18.9,26.52 16.4,11.1 29.7,25 38.3,33.6 l 2.6,2.7 v 3.7 c 0,14 -4.2,33.9 -10.3,58.4 -4.4,17.8 -9.8,37.8 -15.5,58.6 9.7,-8.4 20.1,-15.5 32,-19.5 16.4,-5.5 35.1,-3 54.7,10.4 -3.2,-32.7 -13.5,-67.4 -28,-98 C 362.5,125.2 342.3,97.37 323,81.28 Z m -67,27.52 c -24.7,0 -54.1,26.2 -70.7,42.6 0.6,10.8 4.1,28.8 9.4,50.5 6,24 14,52.5 22,81.5 14.7,53.5 29.6,107.8 31.8,143.4 h 15 c 2.2,-35.6 17.1,-89.9 31.8,-143.4 8,-29 16,-57.5 22,-81.5 5.3,-21.7 8.8,-39.7 9.4,-50.5 -16.6,-16.4 -46,-42.6 -70.7,-42.6 z m 0,23 c 32,0 48,32 48,32 l -16,32 c -32,-16 -32,-16 -64,0 l -16,-32 c 0,0 16,-32 48,-32 z m -9,96 h 18 v 80 h -18 z m -104.7,32.3 c -2.4,0.1 -4.8,0.3 -7.3,0.9 v 30.8 h 18 v -30.2 c -3.5,-0.9 -7,-1.5 -10.7,-1.5 z m 227.4,0 c -3.7,0 -7.2,0.6 -10.7,1.5 v 30.2 h 18 V 261 c -2.5,-0.6 -4.9,-0.8 -7.3,-0.9 z M 247,444.8 v 39 h 18 v -39 z"
       fill="#ffffff"
       fill-opacity="1"
       id="path824" />
  </g>
</svg>
