<?xml version="1.0" encoding="UTF-8" standalone="no"?>
<svg
   viewBox="0 0 479.16995 450.69354"
   version="1.1"
   id="svg828"
   sodipodi:docname="star-formation.svg"
   width="479.16995"
   height="450.69354"
   inkscape:version="1.1.1 (c3084ef, 2021-09-22)"
   xmlns:inkscape="http://www.inkscape.org/namespaces/inkscape"
   xmlns:sodipodi="http://sodipodi.sourceforge.net/DTD/sodipodi-0.dtd"
   xmlns="http://www.w3.org/2000/svg"
   xmlns:svg="http://www.w3.org/2000/svg">
  <defs
     id="defs832" />
  <sodipodi:namedview
     id="namedview830"
     pagecolor="#ffffff"
     bordercolor="#666666"
     borderopacity="1.0"
     inkscape:pageshadow="2"
     inkscape:pageopacity="0.0"
     inkscape:pagecheckerboard="0"
     showgrid="false"
     fit-margin-top="0"
     fit-margin-left="0"
     fit-margin-right="0"
     fit-margin-bottom="0"
     inkscape:zoom="1.7050781"
     inkscape:cx="64.219931"
     inkscape:cy="226.67583"
     inkscape:window-width="1312"
     inkscape:window-height="1081"
     inkscape:window-x="80"
     inkscape:window-y="25"
     inkscape:window-maximized="0"
     inkscape:current-layer="svg828" />
  <g
     class=""
     id="g826"
     transform="translate(-16.414534,-36.361)">
    <path
       d="m 143.627,36.361 c -2.18,0 -16.495,38.303 -18.258,39.584 -1.763,1.281 -42.615,3.06 -43.289,5.133 -0.673,2.073 31.33,27.523 32.004,29.596 0.674,2.073 -10.26,41.475 -8.496,42.756 1.763,1.28 35.86,-21.291 38.039,-21.291 2.18,0 36.276,22.572 38.039,21.29 1.763,-1.28 -9.17,-40.682 -8.496,-42.755 0.673,-2.073 32.677,-27.523 32.004,-29.596 -0.674,-2.073 -41.526,-3.852 -43.29,-5.133 -1.763,-1.28 -16.077,-39.584 -18.257,-39.584 z m 224.746,0 c -2.18,0 -16.494,38.303 -18.258,39.584 -1.763,1.281 -42.615,3.06 -43.289,5.133 -0.673,2.073 31.33,27.523 32.004,29.596 0.674,2.073 -10.26,41.475 -8.496,42.756 1.763,1.28 35.86,-21.291 38.039,-21.291 2.18,0 36.276,22.572 38.04,21.29 1.762,-1.28 -9.17,-40.682 -8.497,-42.755 0.674,-2.073 32.677,-27.523 32.004,-29.596 -0.674,-2.073 -41.526,-3.852 -43.29,-5.133 -1.762,-1.28 -16.077,-39.584 -18.257,-39.584 z M 256,39.883 c -7.12,0 -53.884,125.123 -59.645,129.308 -5.76,4.185 -139.211,9.996 -141.412,16.768 -2.2,6.772 102.349,89.912 104.55,96.684 2.2,6.771 -33.513,135.486 -27.753,139.671 5.76,4.186 117.14,-69.554 124.26,-69.554 7.12,0 118.5,73.74 124.26,69.554 5.76,-4.185 -29.952,-132.9 -27.752,-139.671 2.2,-6.772 106.749,-89.912 104.549,-96.684 -2.2,-6.772 -135.652,-12.583 -141.412,-16.768 C 309.885,165.006 263.12,39.883 256,39.883 Z M 77.973,243.102 c -2.18,0 -16.495,38.302 -18.258,39.584 -1.763,1.28 -42.616,3.06 -43.29,5.132 -0.673,2.073 31.333,27.523 32.007,29.596 0.673,2.073 -10.26,41.475 -8.496,42.756 1.763,1.281 35.857,-21.291 38.037,-21.291 2.18,0 36.275,22.572 38.039,21.29 1.763,-1.28 -9.17,-40.682 -8.496,-42.755 0.673,-2.073 32.679,-27.523 32.005,-29.596 -0.673,-2.073 -41.525,-3.851 -43.289,-5.132 -1.763,-1.282 -16.08,-39.584 -18.26,-39.584 z m 356.054,0 c -2.18,0 -16.496,38.302 -18.26,39.584 -1.763,1.28 -42.615,3.06 -43.288,5.132 -0.674,2.073 31.332,27.523 32.005,29.596 0.674,2.073 -10.26,41.475 -8.496,42.756 1.764,1.281 35.86,-21.291 38.04,-21.291 2.179,0 36.273,22.572 38.036,21.29 1.764,-1.28 -9.17,-40.682 -8.496,-42.755 0.674,-2.073 32.68,-27.523 32.006,-29.596 -0.673,-2.073 -41.526,-3.851 -43.289,-5.132 -1.763,-1.282 -16.078,-39.584 -18.258,-39.584 z M 256,369.932 c -2.18,0 -16.494,38.302 -18.258,39.584 -1.763,1.28 -42.615,3.06 -43.289,5.132 -0.673,2.073 31.33,27.525 32.004,29.598 0.674,2.073 -10.26,41.475 -8.496,42.756 1.763,1.281 35.86,-21.293 38.039,-21.293 2.18,0 36.276,22.574 38.04,21.293 1.762,-1.281 -9.17,-40.683 -8.497,-42.756 0.673,-2.073 32.677,-27.525 32.004,-29.598 -0.674,-2.072 -41.526,-3.851 -43.29,-5.132 C 272.494,408.234 258.18,369.932 256,369.932 Z"
       fill="#ffffff"
       fill-opacity="1"
       id="path824" />
  </g>
</svg>
