<svg xmlns="http://www.w3.org/2000/svg" style="height:512px;width:512px" viewBox="0 0 512 512"><path fill="#000" fill-opacity="1" d="M0 0h512v512H0z"/><g><path fill="#fff" fill-opacity="1" d="M256 21.95l-5.4 4.03C187.5 73.41 125.4 104.5 30.58 120.3l-7.5 1.2v7.6c0 19 8.4 48.7 22.1 85.1 13.6 36.5 32.8 78.8 55.02 119.2 22.3 40.4 47.4 78.9 73.8 107.7 26.1 28.9 53.5 48.9 82 48.9s55.9-20 82.2-48.9c26.2-28.8 51.3-67.3 73.7-107.7 22.2-40.4 41.3-82.7 55-119.2 13.6-36.4 22-66.1 22-85.1v-7.6l-7.4-1.2c-94.6-15.8-156.9-46.89-220.1-94.32zm0 22.2c61.1 45.04 124.4 76.15 214.4 92.35-1.9 15.2-9 41.4-20.3 71.5-4.1 10.8-8.6 22.2-13.7 34H288v-48.9l64 16-96-111.96-96 111.96 64-16V242H75.57c-5-11.8-9.59-23.2-13.69-34-11.2-30.1-18.4-56.3-20.3-71.5C131.6 120.3 194.8 89.19 256 44.15z" transform="translate(0,0)"/></g><g><g transform="translate(256,256)"><circle cx="128" cy="128" r="128" fill="#000" fill-opacity="1"/><circle cx="128" cy="128" r="101" fill="#000" fill-opacity="1" stroke="#fff" stroke-opacity="1" stroke-width="18"/><path fill="#fff" fill-opacity="1" d="M128.1 134.6q-9.1 0-14 5t-4.9 14.3q0 9.3 4.9 14.3 4.9 4.9 14 4.9t13.9-4.9q4.8-5 4.8-14.3 0-9.4-4.8-14.3-4.8-5-13.9-5zm-23.8-10.8q-11.47-3.5-17.31-10.6-5.84-7.2-5.84-17.99 0-16 11.94-24.38 11.91-8.38 35.01-8.38 23 0 34.9 8.38 11.9 8.3 11.9 24.38 0 10.79-5.9 17.99-5.8 7.1-17.3 10.6 12.8 3.6 19.3 11.6 6.6 8 6.6 20.2 0 18.7-12.5 28.4-12.4 9.6-37 9.6T90.89 184q-12.53-9.7-12.53-28.4 0-12.2 6.52-20.2 6.6-8 19.42-11.6zm7.7-25.29q0 7.49 4.1 11.59 4.2 4.1 12 4.1 7.6 0 11.8-4.1 4.1-4.1 4.1-11.59 0-7.53-4.1-11.51-4.2-4.06-11.8-4.06-7.8 0-12 4.06-4.1 4.06-4.1 11.51z"/></g></g></svg>