<svg style="height: 512px; width: 512px;" xmlns="http://www.w3.org/2000/svg" width="512" height="512"><path d="M0 0h512v512H0z" fill="#000" fill-opacity="1"></path><g class="" style="" transform="translate(0,0)"><path d="M256 21.95l-5.4 4.03C187.5 73.41 125.4 104.5 30.58 120.3l-7.5 1.2v7.6c0 19 8.4 48.7 22.1 85.1 13.6 36.5 32.8 78.8 55.02 119.2 22.3 40.4 47.4 78.9 73.8 107.7 26.1 28.9 53.5 48.9 82 48.9s55.9-20 82.2-48.9c26.2-28.8 51.3-67.3 73.7-107.7 22.2-40.4 41.3-82.7 55-119.2 13.6-36.4 22-66.1 22-85.1v-7.6l-7.4-1.2c-94.6-15.8-156.9-46.89-220.1-94.32zm0 22.2c61.1 45.04 124.4 76.15 214.4 92.35-1.9 15.2-9 41.4-20.3 71.5-4.1 10.8-8.6 22.2-13.7 34H288v-48.9l64 16-96-111.96-96 111.96 64-16V242H75.57c-5-11.8-9.59-23.2-13.69-34-11.2-30.1-18.4-56.3-20.3-71.5C131.6 120.3 194.8 89.19 256 44.15z" fill="#ffffff" fill-opacity="1"></path></g><g class="" style="" transform="translate(256,256)"><g><circle cx="128" cy="128" r="128" fill="#000000" fill-opacity="1"></circle><circle stroke="#fff" stroke-opacity="1" fill="#000000" fill-opacity="1" stroke-width="18" cx="128" cy="128" r="101"></circle><path fill="#fff" fill-opacity="1" d="M149.5 123q12.8 3.3 19.4 11.5 6.7 8.1 6.7 20.7 0 18.8-14.4 28.6t-42 9.8q-9.7 0-19.51-1.7-9.73-1.5-19.29-4.6v-25.1q9.14 4.5 18.11 6.9 9.09 2.3 17.79 2.3 12.9 0 19.8-4.5T143 154q0-8.6-7.1-13-7-4.5-20.8-4.5h-13v-21h13.7q12.2 0 18.3-3.8 6-3.9 6-11.75 0-7.28-5.9-11.26-5.8-3.98-16.5-3.98-7.9 0-15.9 1.78-8.03 1.78-15.99 5.25V67.87q9.65-2.71 19.09-4.06 9.5-1.36 18.7-1.36 24.6 0 36.8 8.13 12.2 8.04 12.2 24.29 0 11.13-5.8 18.23-5.8 7-17.3 9.9z"></path></g></g></svg>
