<svg xmlns="http://www.w3.org/2000/svg" viewBox="0 0 512 512" style="height: 512px; width: 512px;"><path d="M0 0h512v512H0z" fill="#000" fill-opacity="1"></path><g class="" transform="translate(0,0)" style="touch-action: none;"><path d="M227.752 139.172l51.998 54.29 13-12.45-52-54.29-12.998 12.45zM187.74 256.424l9.683 10.11 56.33-53.952-9.684-10.11-56.33 53.952zM385.14 72.18l-38.345 72.733 24.227 25.294 74.315-35.176-60.198-62.85zm15.994-9.322l54.207 56.595 7.832-35.195-26.54-27.708-35.498 6.308zM48.828 433.784l20.75 21.666 9.39-8.992-20.752-21.666-9.388 8.992zm22.388-21.442l20.75 21.665 264.318-253.164-20.75-21.666L71.215 412.342z" fill="#ffffff" fill-opacity="1"></path></g><g font-family="Arial, Helvetica, sans-serif" font-size="65" font-style="normal" font-weight="bold" text-anchor="middle" class="" transform="translate(264,488)" style="touch-action: none;"><text stroke="rgba(0, 0, 0, 1)" stroke-width="16.25"><tspan x="0" y="0"></tspan><tspan x="0" y="65"></tspan></text><text fill="rgba(41, 170, 225, 1)"><tspan x="0" y="0"></tspan><tspan x="0" y="65"></tspan></text></g></svg>