<svg xmlns="http://www.w3.org/2000/svg" viewBox="0 0 512 512" style="height: 512px; width: 512px;"><path d="M0 0h512v512H0z" fill="#000" fill-opacity="1"></path><g class="" transform="translate(0,0)" style="touch-action: none;"><path d="M160 32c-16 0-32 16-32 32v384c0 16 16 32 32 32h192c16 0 32-16 32-32V64c0-16-16-32-32-32H160zm21.68 23h96v18h-96V55zM304 55h32v18h-32V55zM154 96h204v320H154V96zm70 342h63.984c16 0 16 16 16 16v6H208v-6s0-16 16-16z" fill="#ffffff" fill-opacity="1"></path></g><g font-family="Arial, Helvetica, sans-serif" font-size="85" font-style="normal" font-weight="bold" text-anchor="middle" class="" transform="translate(267,436)" style="touch-action: none;"><text stroke="rgba(0, 0, 0, 1)" stroke-width="21.25"><tspan x="0" y="0">internal</tspan></text><text fill="rgba(74, 144, 226, 1)"><tspan x="0" y="0">internal</tspan></text></g></svg>