<?xml version="1.0" encoding="UTF-8" standalone="no"?>
<svg
   width="825"
   height="674"
   version="1.1"
   id="svg57"
   xmlns="http://www.w3.org/2000/svg"
   xmlns:svg="http://www.w3.org/2000/svg">
  <defs
     id="defs61" />
  <path
     fill="#231f20"
     d="M 740.75919,14.593088 293,16 313,36 c 0,0 407.75919,0 380.32441,0 27.43478,0 47.43478,-21.406912 47.43478,-21.406912 z"
     id="path9"
     style="stroke:#28a8e0;stroke-width:2;stroke-miterlimit:10" />
  <path
     fill="#010101"
     d="m 305,325 v 0 l 20,-20 443.90691,1.40691 L 792.5,325 v 0 L 813,305 V 36.25 L 788,11 H 720.60078 L 693.32441,36 H 313 L 287.667,11 H 38 L 13,36 V 305.25 L 33,325 Z m 15,-45 -25,25 H 55 L 30,280 V 75 L 55,50 h 320 l 25,25 v 205 z"
     id="path11"
     style="stroke:#28a8e0;stroke-width:2;stroke-miterlimit:10" />
  <path
     opacity="0.5"
     d="M 33,354.76632 20,342.25 v 302.10957 l 20,19.63344 h 745 l 20,-19.63344 V 342.81643 l -12.5,11.94989 z"
     id="path15"
     style="stroke-width:0.999998" />
  <path
     fill="#2075bc"
     d="m 193.462,40 h 18.461 v 5 h -18.461 z"
     id="path17" />
  <path
     fill="#29aae1"
     d="m 221.153,40 h 18.463 v 5 h -18.463 z"
     id="path19" />
  <path
     fill="#5fcae6"
     d="m 248.847,40 h 18.461 v 5 h -18.461 z"
     id="path21" />
  <path
     fill="#b0e0e9"
     d="M 276.538,40 H 295 v 5 h -18.462 z"
     id="path23" />
  <path
     fill="#2075bc"
     d="m 165.77,40 h 18.461 v 5 H 165.77 Z"
     id="path25" />
  <path
     fill="#29aae1"
     d="m 138.077,40 h 18.461 v 5 h -18.461 z"
     id="path27" />
  <path
     fill="#5fcae6"
     d="m 110.385,40 h 18.462 v 5 h -18.462 z"
     id="path29" />
  <path
     fill="#b0e0e9"
     d="m 82.692,40 h 18.461 v 5 H 82.692 Z"
     id="path31" />
  <path
     fill="#ffffff"
     d="m 55,40 h 18.462 v 5 H 55 Z"
     id="path33" />
  <path
     fill="#2075bc"
     d="m 193.461,310 h 18.461 v 5 h -18.461 z"
     id="path35" />
  <path
     fill="#29aae1"
     d="m 221.154,310 h 18.462 v 5 h -18.462 z"
     id="path37" />
  <path
     fill="#5fcae6"
     d="m 248.846,310 h 18.461 v 5 h -18.461 z"
     id="path39" />
  <path
     fill="#b0e0e9"
     d="M 276.539,310 H 295 v 5 h -18.461 z"
     id="path41" />
  <path
     fill="#2075bc"
     d="m 165.769,310 h 18.462 v 5 h -18.462 z"
     id="path43" />
  <path
     fill="#29aae1"
     d="m 138.077,310 h 18.461 v 5 h -18.461 z"
     id="path45" />
  <path
     fill="#5fcae6"
     d="m 110.385,310 h 18.461 v 5 h -18.461 z"
     id="path47" />
  <path
     fill="#b0e0e9"
     d="m 82.692,310 h 18.461 v 5 H 82.692 Z"
     id="path49" />
  <path
     fill="#ffffff"
     d="m 55,310 h 18.461 v 5 H 55 Z"
     id="path51" />
  <path
     fill="none"
     stroke="#28a8e0"
     stroke-width="2.00001"
     stroke-miterlimit="10"
     d="M 33,356.13579 20,343.6749 v 300.77162 l 20,19.54649 h 745 l 20,-19.54649 V 342.81643 l -12.5,13.31936 z"
     id="path53" />
  <path
     fill="#27aae1"
     d="m 391.968,285.213 v 12.675 l 6.337,-6.338 z m -12.395,0 v 12.675 l 6.338,-6.338 z m -12.392,0 v 12.675 l 6.337,-6.338 z m -12.395,0 v 12.675 l 6.339,-6.338 z m -12.392,0 v 12.675 l 6.337,-6.338 z m -12.394,0 v 12.675 l 6.337,-6.338 z"
     id="path55" />
</svg>
