<svg xmlns="http://www.w3.org/2000/svg" width="825" height="648"><g stroke="#28A8E0" stroke-width="2" stroke-miterlimit="10"><path fill="#231F20" d="M688 16H293l20 20h355z"/><path fill="#010101" d="M308 325h-3l20-20h343l25 20h99.5l20.5-20V36.25L788 11h-94.834L668 36H313l-25.333-25H38L13 36v269.25L33 325h275zm12-45l-25 25H55l-25-25V75l25-25h320l25 25v205h-80z"/></g><path opacity=".5" d="M33 325l-13-12.75V620l20 20h745l20-20V312.827L792.5 325z"/><path fill="#2075BC" d="M193.462 40h18.461v5h-18.461z"/><path fill="#29AAE1" d="M221.153 40h18.463v5h-18.463z"/><path fill="#5FCAE6" d="M248.847 40h18.461v5h-18.461z"/><path fill="#B0E0E9" d="M276.538 40H295v5h-18.462z"/><path fill="#2075BC" d="M165.77 40h18.461v5H165.77z"/><path fill="#29AAE1" d="M138.077 40h18.461v5h-18.461z"/><path fill="#5FCAE6" d="M110.385 40h18.462v5h-18.462z"/><path fill="#B0E0E9" d="M82.692 40h18.461v5H82.692z"/><path fill="#FFF" d="M55 40h18.462v5H55z"/><path fill="#2075BC" d="M193.461 310h18.461v5h-18.461z"/><path fill="#29AAE1" d="M221.154 310h18.462v5h-18.462z"/><path fill="#5FCAE6" d="M248.846 310h18.461v5h-18.461z"/><path fill="#B0E0E9" d="M276.539 310H295v5h-18.461z"/><path fill="#2075BC" d="M165.769 310h18.462v5h-18.462z"/><path fill="#29AAE1" d="M138.077 310h18.461v5h-18.461z"/><path fill="#5FCAE6" d="M110.385 310h18.461v5h-18.461z"/><path fill="#B0E0E9" d="M82.692 310h18.461v5H82.692z"/><path fill="#FFF" d="M55 310h18.461v5H55z"/><path fill="none" stroke="#28A8E0" stroke-width="2" stroke-miterlimit="10" d="M33 325l-13-12.75V620l20 20h745l20-20V312.827L792.5 325z"/><path fill="#27AAE1" d="M391.968 285.213v12.675l6.337-6.338zM379.573 285.213v12.675l6.338-6.338zM367.181 285.213v12.675l6.337-6.338zM354.786 285.213v12.675l6.339-6.338zM342.394 285.213v12.675l6.337-6.338zM330 285.213v12.675l6.337-6.338z"/></svg>