<svg xmlns="http://www.w3.org/2000/svg" xmlns:svg="http://www.w3.org/2000/svg" id="svg57" width="825" height="674" version="1.1"><path id="path9" fill="#231f20" d="M 740.75919,14.593088 293,16 313,36 c 0,0 407.75919,0 380.32441,0 27.43478,0 47.43478,-21.406912 47.43478,-21.406912 z" style="stroke:#28a8e0;stroke-width:2;stroke-miterlimit:10"/><path id="path11" fill="#010101" d="m 305,325 v 0 l 20,-20 443.90691,1.40691 L 792.5,325 v 0 L 813,305 V 36.25 L 788,11 H 720.60078 L 693.32441,36 H 313 L 287.667,11 H 38 L 13,36 V 305.25 L 33,325 Z m 15,-45 -25,25 H 55 L 30,280 V 75 L 55,50 h 320 l 25,25 v 205 z" style="stroke:#28a8e0;stroke-width:2;stroke-miterlimit:10"/><path id="path15" d="M 33,354.76632 20,342.25 v 302.10957 l 20,19.63344 h 745 l 20,-19.63344 V 342.81643 l -12.5,11.94989 z" opacity=".5" style="stroke-width:.999998"/><path id="path17" fill="#2075bc" d="m 193.462,40 h 18.461 v 5 h -18.461 z"/><path id="path19" fill="#29aae1" d="m 221.153,40 h 18.463 v 5 h -18.463 z"/><path id="path21" fill="#5fcae6" d="m 248.847,40 h 18.461 v 5 h -18.461 z"/><path id="path23" fill="#b0e0e9" d="M 276.538,40 H 295 v 5 h -18.462 z"/><path id="path25" fill="#2075bc" d="m 165.77,40 h 18.461 v 5 H 165.77 Z"/><path id="path27" fill="#29aae1" d="m 138.077,40 h 18.461 v 5 h -18.461 z"/><path id="path29" fill="#5fcae6" d="m 110.385,40 h 18.462 v 5 h -18.462 z"/><path id="path31" fill="#b0e0e9" d="m 82.692,40 h 18.461 v 5 H 82.692 Z"/><path id="path33" fill="#fff" d="m 55,40 h 18.462 v 5 H 55 Z"/><path id="path35" fill="#2075bc" d="m 193.461,310 h 18.461 v 5 h -18.461 z"/><path id="path37" fill="#29aae1" d="m 221.154,310 h 18.462 v 5 h -18.462 z"/><path id="path39" fill="#5fcae6" d="m 248.846,310 h 18.461 v 5 h -18.461 z"/><path id="path41" fill="#b0e0e9" d="M 276.539,310 H 295 v 5 h -18.461 z"/><path id="path43" fill="#2075bc" d="m 165.769,310 h 18.462 v 5 h -18.462 z"/><path id="path45" fill="#29aae1" d="m 138.077,310 h 18.461 v 5 h -18.461 z"/><path id="path47" fill="#5fcae6" d="m 110.385,310 h 18.461 v 5 h -18.461 z"/><path id="path49" fill="#b0e0e9" d="m 82.692,310 h 18.461 v 5 H 82.692 Z"/><path id="path51" fill="#fff" d="m 55,310 h 18.461 v 5 H 55 Z"/><path id="path53" fill="none" stroke="#28a8e0" stroke-miterlimit="10" stroke-width="2" d="M 33,356.13579 20,343.6749 v 300.77162 l 20,19.54649 h 745 l 20,-19.54649 V 342.81643 l -12.5,13.31936 z"/><path id="path55" fill="#27aae1" d="m 391.968,285.213 v 12.675 l 6.337,-6.338 z m -12.395,0 v 12.675 l 6.338,-6.338 z m -12.392,0 v 12.675 l 6.337,-6.338 z m -12.395,0 v 12.675 l 6.339,-6.338 z m -12.392,0 v 12.675 l 6.337,-6.338 z m -12.394,0 v 12.675 l 6.337,-6.338 z"/></svg>