<?xml version="1.0" encoding="utf-8"?>
<!-- Generator: Adobe Illustrator 16.0.0, SVG Export Plug-In . SVG Version: 6.00 Build 0)  -->
<!DOCTYPE svg PUBLIC "-//W3C//DTD SVG 1.1//EN" "http://www.w3.org/Graphics/SVG/1.1/DTD/svg11.dtd">
<svg version="1.1" id="Layer_1" xmlns="http://www.w3.org/2000/svg" xmlns:xlink="http://www.w3.org/1999/xlink" x="0px" y="0px"
	 width="71.125px" height="100px" viewBox="0 0 71.125 100" enable-background="new 0 0 71.125 100" xml:space="preserve">
<g>
	<path fill-rule="evenodd" clip-rule="evenodd" fill="none" stroke="#27AAE1" stroke-width="2" stroke-miterlimit="10" d="
		M34.569,37.351c0.409,0.039,0.818,0.088,1.229,0.116c1.101,0.074,1.892,1.055,1.932,2.011c0.052,1.208,0.072,2.418,0.078,3.628
		c0.002,0.284,0.081,0.386,0.354,0.444c2.814,0.594,5.443,1.648,7.861,3.212c0.205,0.133,0.339,0.135,0.527-0.045
		c0.853-0.815,1.718-1.617,2.585-2.416c0.584-0.537,1.257-0.805,2.048-0.544c0.269,0.088,0.558,0.21,0.756,0.401
		c1.043,1.002,2.106,1.99,3.073,3.063c0.899,1,0.873,1.984-0.012,3.011c-0.748,0.868-1.571,1.673-2.361,2.506
		c-0.078,0.082-0.155,0.163-0.215,0.226c0.507,0.9,1.029,1.766,1.49,2.664c0.894,1.742,1.489,3.598,1.949,5.498
		c0.071,0.293,0.185,0.42,0.508,0.423c1.262,0.012,2.524,0.061,3.786,0.081c0.243,0.004,0.432,0.075,0.617,0.225
		c0.482,0.385,0.97,0.768,1.04,1.438c0.052,0.482,0.084,0.971,0.08,1.455c-0.007,1.127-0.01,2.255-0.074,3.379
		c-0.056,0.988-0.793,1.692-1.799,1.756c-1.237,0.079-2.479,0.125-3.719,0.17c-0.23,0.008-0.333,0.064-0.393,0.309
		c-0.403,1.677-0.898,3.325-1.598,4.905c-0.253,0.573-0.313,0.596-0.761,0.159c-1.576-1.539-3.142-3.092-4.703-4.646
		c-0.066-0.066-0.101-0.225-0.075-0.318c0.521-1.916,0.646-3.871,0.567-5.842c-0.088-2.227-0.717-4.315-1.781-6.26
		c-2.315-4.226-5.822-6.929-10.518-8.049c-2.016-0.481-4.054-0.488-6.1-0.185c-3.803,0.563-6.854,2.452-9.385,5.276
		c-1.916,2.139-3.114,4.633-3.665,7.436c-0.261,1.324-0.253,2.676-0.193,4.021c0.119,2.706,0.96,5.194,2.439,7.443
		c2.496,3.795,5.979,6.21,10.444,7.103c1.072,0.215,2.201,0.184,3.306,0.191c1.26,0.008,2.519-0.088,3.751-0.397
		c0.11-0.028,0.289,0.024,0.37,0.104c1.589,1.602,3.17,3.21,4.75,4.82c0.129,0.131,0.238,0.279,0.405,0.479
		c-0.672,0.257-1.287,0.523-1.922,0.725c-1.002,0.316-2.016,0.598-3.029,0.875c-0.242,0.066-0.348,0.152-0.354,0.428
		c-0.025,1.105-0.07,2.212-0.127,3.316c-0.067,1.326-0.9,2.172-2.234,2.209c-1.292,0.037-2.586,0.035-3.878,0.002
		c-1.255-0.034-2.24-0.846-2.271-2.353c-0.022-1.117-0.079-2.233-0.12-3.35c-0.002-0.051-0.01-0.102-0.017-0.175
		c-3.049-0.68-5.924-1.773-8.544-3.572c-0.07,0.065-0.15,0.139-0.229,0.215c-0.758,0.734-1.506,1.479-2.274,2.201
		c-0.678,0.637-1.477,0.904-2.396,0.639c-0.221-0.063-0.459-0.168-0.619-0.325c-1.069-1.05-2.115-2.125-3.181-3.181
		c-0.495-0.49-0.524-1.092-0.48-1.725c0.029-0.407,0.187-0.756,0.469-1.051c0.808-0.846,1.61-1.695,2.42-2.538
		c0.078-0.081,0.19-0.128,0.291-0.193c-1.748-2.739-2.979-5.593-3.593-8.74c-0.11,0-0.222,0.001-0.332,0
		c-1.304-0.021-2.607-0.04-3.911-0.071c-0.131-0.002-0.274-0.067-0.389-0.141c-0.165-0.104-0.303-0.25-0.461-0.365
		c-0.512-0.374-0.765-0.88-0.79-1.508c-0.004-0.092-0.037-0.181-0.057-0.271c0-1.303,0-2.607,0-3.911
		c0.035-0.171,0.06-0.345,0.105-0.512c0.271-0.976,1.166-1.64,2.253-1.657c1.097-0.016,2.194-0.021,3.29-0.021
		c0.226,0,0.331-0.047,0.39-0.306c0.591-2.593,1.532-5.046,2.907-7.331c0.693-1.152,0.71-0.758-0.188-1.742
		c-0.606-0.664-1.273-1.276-1.847-1.967c-0.827-1-0.827-2.171,0.053-3.126c0.909-0.986,1.892-1.91,2.887-2.812
		c0.976-0.884,2.28-0.687,3.138,0.139c0.656,0.632,1.317,1.257,1.963,1.899c0.212,0.21,0.381,0.463,0.553,0.675
		c2.78-1.654,5.543-2.993,8.652-3.503c0-0.138-0.002-0.261,0-0.384c0.021-1.127,0.021-2.255,0.068-3.381
		c0.055-1.302,0.763-2.083,2.019-2.275c0.315-0.048,0.637-0.057,0.954-0.084C33.08,37.351,33.824,37.351,34.569,37.351z"/>
	<path fill-rule="evenodd" clip-rule="evenodd" fill="none" stroke="#27AAE1" stroke-width="2" stroke-miterlimit="10" d="
		M61.331,98.574c-0.908-0.155-1.552-0.759-2.176-1.353c-1.887-1.799-3.763-3.611-5.615-5.443c-4.56-4.513-9.098-9.047-13.661-13.554
		c-0.801-0.79-1.672-1.512-2.531-2.239c-0.695-0.587-1.508-0.84-2.432-0.84c-1.208-0.002-2.421-0.039-3.604-0.33
		c-1.912-0.469-3.473-1.506-4.743-2.988c-1.032-1.206-1.755-2.576-2.021-4.152c-0.206-1.221-0.226-2.447,0.024-3.669
		c0.013-0.06,0.032-0.119,0.052-0.178c0.138-0.407,0.224-0.442,0.544-0.149c0.716,0.658,1.414,1.334,2.122,2
		c0.587,0.554,1.19,1.09,1.762,1.659c1.014,1.012,2.666,0.938,3.616,0.093c0.809-0.719,1.577-1.494,2.284-2.314
		c0.731-0.85,0.678-2.441-0.081-3.273c-1.114-1.223-2.274-2.404-3.412-3.605c-0.221-0.232-0.433-0.474-0.638-0.721
		c-0.202-0.244-0.181-0.366,0.125-0.472c0.368-0.128,0.748-0.239,1.133-0.302c2.622-0.422,5.025,0.146,7.121,1.77
		c1.637,1.267,2.868,2.871,3.336,4.937c0.183,0.81,0.213,1.657,0.275,2.489c0.053,0.701,0.104,1.409,0.063,2.109
		c-0.059,0.985,0.371,1.765,0.948,2.477c0.507,0.625,1.067,1.211,1.636,1.781c5.24,5.252,10.494,10.488,15.727,15.746
		c1.334,1.342,2.627,2.727,3.894,4.133c0.382,0.424,0.612,0.985,0.911,1.484c0,0.455,0,0.91,0,1.365
		c-0.02,0.068-0.047,0.136-0.059,0.205c-0.249,1.498-1.066,2.545-2.501,3.057c-0.447,0.16-0.941,0.189-1.414,0.278
		C61.787,98.574,61.56,98.574,61.331,98.574z M62.137,96.337c0.693,0.176,1.664-0.961,1.65-1.692c-0.02-1.013-0.739-1.832-1.7-1.847
		c-0.984-0.016-1.896,0.826-1.918,1.77C60.146,95.549,60.999,96.315,62.137,96.337z"/>
</g>
</svg>
