<?xml version="1.0" encoding="utf-8"?>
<!-- Generator: Adobe Illustrator 16.0.0, SVG Export Plug-In . SVG Version: 6.00 Build 0)  -->
<!DOCTYPE svg PUBLIC "-//W3C//DTD SVG 1.1//EN" "http://www.w3.org/Graphics/SVG/1.1/DTD/svg11.dtd">
<svg version="1.1" id="Layer_1" xmlns="http://www.w3.org/2000/svg" xmlns:xlink="http://www.w3.org/1999/xlink" x="0px" y="0px"
	 width="390px" height="99px" viewBox="0 0 390 99" enable-background="new 0 0 390 99" xml:space="preserve">
<polygon fill="none" stroke="#27AAE1" stroke-width="2" stroke-miterlimit="10" points="385,15 385,85 375,95 15,95 5,85 5,15 15,5 
	375,5 "/>
<polygon fill="#27AAE1" stroke="#27AAE1" stroke-width="2" stroke-miterlimit="10" points="366.143,25 366.143,25 110,25 110,25 
	106.143,20 106.143,5 370,5 370,20 "/>
<polygon stroke="#27AAE1" stroke-width="2" stroke-miterlimit="10" points="110,85 105,80 105,50 110,45 150,45 155,50 155,80 
	150,85 "/>
<polygon stroke="#27AAE1" stroke-width="2" stroke-miterlimit="10" points="165,85 160,80 160,50 165,45 205,45 210,50 210,80 
	205,85 "/>
<polygon stroke="#27AAE1" stroke-width="2" stroke-miterlimit="10" points="220,85 215,80 215,50 220,45 260,45 265,50 265,80 
	260,85 "/>
<polygon stroke="#27AAE1" stroke-width="2" stroke-miterlimit="10" points="275,85 270,80 270,50 275,45 315,45 320,50 320,80 
	315,85 "/>
<polygon stroke="#27AAE1" stroke-width="2" stroke-miterlimit="10" points="330,85 325,80 325,50 330,45 370,45 375,50 375,80 
	370,85 "/>
<g>
	<polygon stroke="#27AAE1" stroke-width="2" stroke-miterlimit="10" points="95,32.5 87.5,25 27.5,25 20,32.5 20,52.5 95,52.5 	"/>
	<polygon stroke="#27AAE1" stroke-width="2" stroke-miterlimit="10" points="20,77.5 27.5,85 87.5,85 95,77.5 95,57.5 20,57.5 	"/>
</g>
</svg>
