<svg xmlns="http://www.w3.org/2000/svg" width="406" height="112"><g fill="none" stroke="#27AAE1" stroke-width="2" stroke-miterlimit="10"><path d="M100.639 31.508s-13.705-2.784-34.139-2.75c-20.434-.034-34.139 2.75-34.139 2.75s-.399 12.749 3.082 27.415h62.114c3.482-14.666 3.082-27.415 3.082-27.415zM66.5 100.624c17.434-5.977 25.98-22.238 30.165-37.394H36.334C40.52 78.386 49.066 94.647 66.5 100.624z"/></g><g clip-rule="evenodd" fill="none" stroke="#27AAE1" stroke-width="2" stroke-miterlimit="10"><path d="M176.5 96.952c0 1.597 12.051 2.891 26.916 2.891s26.917-1.294 26.917-2.891V62.025H176.5v34.927zM230.333 30.976c0-1.596-12.052-2.891-26.917-2.891-14.865 0-26.916 1.295-26.916 2.891v26.809h53.833V30.976z"/></g><g clip-rule="evenodd" fill="none" stroke="#27AAE1" stroke-width="2" stroke-miterlimit="10"><path d="M334.542 39.4c.409.039.818.088 1.229.116 1.101.074 1.892 1.055 1.932 2.011.052 1.208.072 2.418.078 3.628.002.284.081.386.354.444 2.814.594 5.443 1.648 7.861 3.212.205.133.339.135.527-.045.853-.815 1.718-1.617 2.585-2.416.584-.537 1.257-.805 2.048-.544.269.088.558.21.756.401 1.043 1.002 2.106 1.99 3.073 3.063.899 1 .873 1.984-.012 3.011-.748.868-1.571 1.673-2.361 2.506l-.215.226c.507.9 1.029 1.766 1.49 2.664.894 1.742 1.489 3.598 1.949 5.498.071.293.185.42.508.423 1.262.012 2.524.061 3.786.081a.945.945 0 01.617.225c.482.385.97.768 1.04 1.438.052.482.084.971.08 1.455-.007 1.127-.01 2.255-.074 3.379-.056.988-.793 1.692-1.799 1.756-1.237.079-2.479.125-3.719.17-.23.008-.333.064-.393.309-.403 1.677-.898 3.325-1.598 4.905-.253.573-.313.596-.761.159a686.751 686.751 0 01-4.703-4.646c-.066-.066-.101-.225-.075-.318.521-1.916.646-3.871.567-5.842-.088-2.227-.717-4.315-1.781-6.26-2.315-4.226-5.822-6.929-10.518-8.049-2.016-.481-4.054-.488-6.1-.185-3.803.563-6.854 2.452-9.385 5.276-1.916 2.139-3.114 4.633-3.665 7.436-.261 1.324-.253 2.676-.193 4.021.119 2.706.96 5.194 2.439 7.443 2.496 3.795 5.979 6.21 10.444 7.103 1.072.215 2.201.184 3.306.191 1.26.008 2.519-.088 3.751-.397a.461.461 0 01.37.104c1.589 1.602 3.17 3.21 4.75 4.82.129.131.238.279.405.479-.672.257-1.287.523-1.922.725a81.78 81.78 0 01-3.029.875c-.242.066-.348.152-.354.428-.025 1.105-.07 2.212-.127 3.316-.067 1.326-.9 2.172-2.234 2.209a71.627 71.627 0 01-3.878.002c-1.255-.034-2.24-.846-2.271-2.353-.022-1.117-.079-2.233-.12-3.35-.002-.051-.01-.102-.017-.175-3.049-.68-5.924-1.773-8.544-3.572-.07.065-.15.139-.229.215-.758.734-1.506 1.479-2.274 2.201-.678.637-1.477.904-2.396.639-.221-.063-.459-.168-.619-.325-1.069-1.05-2.115-2.125-3.181-3.181-.495-.49-.524-1.092-.48-1.725.029-.407.187-.756.469-1.051.808-.846 1.61-1.695 2.42-2.538.078-.081.19-.128.291-.193-1.748-2.739-2.979-5.593-3.593-8.74h-.332c-1.304-.021-2.607-.04-3.911-.071a.794.794 0 01-.389-.141c-.165-.104-.303-.25-.461-.365-.512-.374-.765-.88-.79-1.508-.004-.092-.037-.181-.057-.271v-3.911c.035-.171.06-.345.105-.512.271-.976 1.166-1.64 2.253-1.657 1.097-.016 2.194-.021 3.29-.021.226 0 .331-.047.39-.306.591-2.593 1.532-5.046 2.907-7.331.693-1.152.71-.758-.188-1.742-.606-.664-1.273-1.276-1.847-1.967-.827-1-.827-2.171.053-3.126.909-.986 1.892-1.91 2.887-2.812.976-.884 2.28-.687 3.138.139.656.632 1.317 1.257 1.963 1.899.212.21.381.463.553.675 2.78-1.654 5.543-2.993 8.652-3.503 0-.138-.002-.261 0-.384.021-1.127.021-2.255.068-3.381.055-1.302.763-2.083 2.019-2.275.315-.048.637-.057.954-.084.749-.003 1.493-.003 2.238-.003z"/><path d="M361.304 100.624c-.908-.155-1.552-.759-2.176-1.353a424.203 424.203 0 01-5.615-5.443c-4.56-4.513-9.098-9.047-13.661-13.554-.801-.79-1.672-1.512-2.531-2.239-.695-.587-1.508-.84-2.432-.84-1.208-.002-2.421-.039-3.604-.33-1.912-.469-3.473-1.506-4.743-2.988-1.032-1.206-1.755-2.576-2.021-4.152-.206-1.221-.226-2.447.024-3.669.013-.06.032-.119.052-.178.138-.407.224-.442.544-.149.716.658 1.414 1.334 2.122 2 .587.554 1.19 1.09 1.762 1.659 1.014 1.012 2.666.938 3.616.093a24.575 24.575 0 002.284-2.314c.731-.85.678-2.441-.081-3.273-1.114-1.223-2.274-2.404-3.412-3.605a14.097 14.097 0 01-.638-.721c-.202-.244-.181-.366.125-.472a6.834 6.834 0 011.133-.302c2.622-.422 5.025.146 7.121 1.77 1.637 1.267 2.868 2.871 3.336 4.937.183.81.213 1.657.275 2.489.053.701.104 1.409.063 2.109-.059.985.371 1.765.948 2.477a23.541 23.541 0 001.636 1.781c5.24 5.252 10.494 10.488 15.727 15.746a116.023 116.023 0 013.894 4.133c.382.424.612.985.911 1.484v1.365c-.02.068-.047.136-.059.205-.249 1.498-1.066 2.545-2.501 3.057-.447.16-.941.189-1.414.278l-.685-.001zm.805-2.237c.693.176 1.664-.961 1.65-1.692-.02-1.013-.739-1.832-1.7-1.847-.984-.016-1.896.826-1.918 1.77-.023.981.831 1.747 1.968 1.769z"/></g></svg>