<?xml version="1.0" encoding="utf-8"?>
<!-- Generator: Adobe Illustrator 16.0.0, SVG Export Plug-In . SVG Version: 6.00 Build 0)  -->
<!DOCTYPE svg PUBLIC "-//W3C//DTD SVG 1.1//EN" "http://www.w3.org/Graphics/SVG/1.1/DTD/svg11.dtd">
<svg version="1.1" id="Layer_1" xmlns="http://www.w3.org/2000/svg" x="0px" y="0px"
     width="100px" height="100px" viewBox="0 0 100 100" enable-background="new 0 0 100 100" xml:space="preserve">
<g>
	<path fill="#5ECAE7" d="M18.875,20.625v62.5h62.5v-62.5H18.875z M33.375,44c-4.894,0-8.875-3.981-8.875-8.875
		s3.981-8.875,8.875-8.875c4.894,0,8.875,3.981,8.875,8.875S38.269,44,33.375,44z M50.125,60.75c-4.894,0-8.875-3.981-8.875-8.875
		S45.231,43,50.125,43C55.019,43,59,46.981,59,51.875S55.019,60.75,50.125,60.75z M66.875,77.5C61.981,77.5,58,73.519,58,68.625
		s3.981-8.875,8.875-8.875s8.875,3.981,8.875,8.875S71.769,77.5,66.875,77.5z"/>
</g>
</svg>
