<svg xmlns="http://www.w3.org/2000/svg" xmlns:xlink="http://www.w3.org/1999/xlink" width="400" height="360"><defs><linearGradient id="a"><stop offset="0" stop-color="#26A9E0" stop-opacity=".995"/><stop offset="1" stop-color="#60CAE6" stop-opacity=".995"/></linearGradient><linearGradient id="b" x1="19.639" x2="380.361" y1="180" y2="180" gradientUnits="userSpaceOnUse" xlink:href="#a"/></defs><path fill="url(#b)" d="M374 169a190 152 0 11-380 0 190 152 0 11380 0z" transform="rotate(-31.609 211.43 146.237)"/><g fill-rule="evenodd"><path d="M187.622 195.371l-75.69 6.34-75.723-50.715L150.67 97.909"/><path fill="#231F20" d="M152.024 42.007L71.25 55.697l-35.11 95.299 119.124-7.803"/><path fill="#020905" d="M187.727 195.58L217.82 93.036 152.06 41.763l-30.095 103.66z"/><g fill="red" opacity=".5"><path d="M181.039 119.23a12.621 8.269-60.297 11-17.834 0 12.621 8.269-60.297 1117.834 0zM126.096 68.419a12.621 8.269-60.297 11-17.834 0 12.621 8.269-60.297 1117.834 0zM107.474 122.016a12.621 8.269-60.297 11-17.834 0 12.621 8.269-60.297 1117.834 0zM71.78 126.85a11.46 7.507-60.297 11-16.191 0 11.46 7.507-60.297 1116.192 0zM89.927 73.059a11.46 7.507-60.297 11-16.192 0 11.46 7.507-60.297 1116.192 0zM118.095 155.783a6.104 9.318-45.297 11-3.407 12.718 6.104 9.318-45.297 113.407-12.718zM119.406 182.209a4.812 7.344-45.297 11-2.686 10.024 4.812 7.344-45.297 112.686-10.024z"/></g><g><path fill="#020905" d="M199.334 163.817L184.6 256.54l70.94 61.624 61.426-130.366"/><path d="M363.664 186.91L341.4 279.618l-85.909 38.62 26.403-127.09"/><path fill="#231F20" d="M199.137 163.759l86.303-37.438 78.421 60.688-89.85 41.772z"/><g fill="red" opacity=".5"><path d="M287.828 155.26a10.517 6.89-1.598 11-7.72-12.699 10.517 6.89-1.598 117.72 12.698zM309.207 170.924a10.517 6.89-1.598 11-7.72-12.698 10.517 6.89-1.598 117.72 12.698zM331.67 188.263a10.517 6.89-1.598 11-7.721-12.698 10.517 6.89-1.598 117.72 12.698zM240.843 170.993a11.284 7.392-1.598 11-8.284-13.623 11.284 7.392-1.598 118.284 13.623zM263.78 187.8a11.284 7.392-1.598 11-8.284-13.624 11.284 7.392-1.598 118.284 13.624zM287.88 206.403a11.284 7.392-1.598 11-8.284-13.624 11.284 7.392-1.598 118.283 13.624zM346.525 221.294a8.371 5.484-60.297 11-11.829 0 8.371 5.484-60.297 1111.829 0zM320.516 252.82a8.371 5.484-60.297 11-11.829 0 8.371 5.484-60.297 1111.829 0zM290.566 288.287a8.371 5.484-60.297 11-11.829 0 8.371 5.484-60.297 1111.83 0zM226.456 234.639a6.104 9.318-45.297 11-3.408 12.717 6.104 9.318-45.297 113.408-12.717zM254.572 223.75a7.136 10.892-45.297 11-3.983 14.866 7.136 10.892-45.297 113.983-14.866zM213.103 190.573a7.136 10.892-45.297 11-3.984 14.866 7.136 10.892-45.297 113.984-14.866zM242.22 277.987a6.104 9.318-45.297 11-3.409 12.718 6.104 9.318-45.297 113.408-12.718zM204.388 246.461a6.104 9.318-45.297 11-3.408 12.718 6.104 9.318-45.297 113.408-12.718z"/></g></g></g></svg>