<?xml version="1.0" encoding="utf-8"?>
<!-- Generator: Adobe Illustrator 16.0.0, SVG Export Plug-In . SVG Version: 6.00 Build 0)  -->
<!DOCTYPE svg PUBLIC "-//W3C//DTD SVG 1.1//EN" "http://www.w3.org/Graphics/SVG/1.1/DTD/svg11.dtd">
<svg version="1.1" id="Layer_1" xmlns="http://www.w3.org/2000/svg" xmlns:xlink="http://www.w3.org/1999/xlink" x="0px" y="0px"
	 width="295px" height="605px" viewBox="0 0 295 605" enable-background="new 0 0 295 605" xml:space="preserve">
<polygon points="290,7 290,7 290,32 260,2 285,2 "/>
<line fill="none" stroke="#27AAE1" stroke-width="2" stroke-miterlimit="10" x1="290" y1="584" x2="290" y2="17"/>
<line fill="none" stroke="#27AAE1" stroke-width="2" stroke-miterlimit="10" x1="275" y1="17" x2="291.125" y2="17"/>
<polygon points="10,2 40,2 10,32 "/>
<polygon fill="none" stroke="#27AAE1" stroke-width="2" stroke-miterlimit="10" points="265,7 285,27 285,330 265,330 35,330 
	15,330 15,27 35,7 "/>
<linearGradient id="SVGID_1_" gradientUnits="userSpaceOnUse" x1="302.6748" y1="-14.8762" x2="590.085" y2="-14.8762" gradientTransform="matrix(1 0 0 -1 -296.3799 330.2017)">
	<stop  offset="0" style="stop-color:#000000"/>
	<stop  offset="0.54" style="stop-color:#000000;stop-opacity:0.8"/>
	<stop  offset="1" style="stop-color:#000000"/>
</linearGradient>
<polygon fill="url(#SVGID_1_)" stroke="#27AAE1" stroke-width="2" stroke-miterlimit="10" points="293.705,345.075 285,360.156 
	15,360.156 6.295,345.075 15,330 285,330 "/>
<rect x="15" y="360.156" stroke="#27AAE1" stroke-width="2" stroke-miterlimit="10" width="270" height="74.847"/>
<polygon stroke="#27AAE1" stroke-width="2" stroke-miterlimit="10" points="280,570 265,585 35,585 20,570 20,435.656 280,435.656 
	"/>
<rect x="280" y="465" stroke="#27AAE1" stroke-width="2" stroke-miterlimit="10" width="5" height="70"/>
<rect x="15" y="465" stroke="#27AAE1" stroke-width="2" stroke-miterlimit="10" width="5" height="70"/>
<polygon stroke="#27AAE1" stroke-width="2" stroke-miterlimit="10" points="290,338.625 290,240 285,220 285,330 "/>
<polygon fill="none" stroke="#27AAE1" stroke-width="2" stroke-miterlimit="10" points="10,338.625 10,240 15,220 15,330 "/>
<polygon fill="#27AAE1" points="17.24,355 11.466,345 17.24,335 "/>
<polygon fill="#27AAE1" points="284.227,355 290,345 284.227,335 "/>
<line fill="none" stroke="#27AAE1" stroke-miterlimit="10" x1="270" y1="565" x2="260" y2="575"/>
<line fill="none" stroke="#27AAE1" stroke-miterlimit="10" x1="275" y1="565" x2="260" y2="580"/>
<line fill="none" stroke="#27AAE1" stroke-miterlimit="10" x1="30" y1="565" x2="40" y2="575"/>
<line fill="none" stroke="#27AAE1" stroke-miterlimit="10" x1="25" y1="565" x2="40" y2="580"/>
<line fill="none" stroke="#27AAE1" stroke-width="2" stroke-miterlimit="10" x1="280" y1="22" x2="290" y2="22"/>
<rect x="5" y="450" fill="#1C75BC" width="5" height="10"/>
<rect x="5" y="465" fill="#27AAE1" width="5" height="10"/>
<rect x="5" y="480" fill="#5ECAE7" width="5" height="10"/>
<rect x="5" y="495" fill="#AEDFE9" width="5" height="10"/>
<rect x="5" y="510" fill="#FFFFFF" width="5" height="10"/>
<rect x="5" y="435" fill="#1C75BC" width="5" height="10"/>
<rect x="5" y="420" fill="#27AAE1" width="5" height="10"/>
<rect x="5" y="405" fill="#5ECAE7" width="5" height="10"/>
<rect x="5" y="390" fill="#AEDFE9" width="5" height="10"/>
<rect x="5" y="375" fill="#FFFFFF" width="5" height="10"/>
<line fill="none" stroke="#27AAE1" stroke-miterlimit="10" x1="0" y1="525" x2="0" y2="590"/>
<line fill="none" stroke="#27AAE1" stroke-miterlimit="10" x1="5" y1="545" x2="5" y2="595"/>
<line fill="none" stroke="#27AAE1" stroke-miterlimit="10" x1="15" y1="545" x2="15" y2="605"/>
<line fill="none" stroke="#27AAE1" stroke-miterlimit="10" x1="10" y1="560" x2="10" y2="600"/>
<rect x="45" y="585" stroke="#27AAE1" stroke-miterlimit="10" width="210" height="10"/>
</svg>
