<?xml version="1.0" encoding="UTF-8" standalone="no"?>
<svg
   width="295"
   height="605"
   version="1.1"
   id="svg189"
   sodipodi:docname="Interface-Overlay-1.svg"
   inkscape:version="1.1.1 (c3084ef, 2021-09-22)"
   xmlns:inkscape="http://www.inkscape.org/namespaces/inkscape"
   xmlns:sodipodi="http://sodipodi.sourceforge.net/DTD/sodipodi-0.dtd"
   xmlns="http://www.w3.org/2000/svg"
   xmlns:svg="http://www.w3.org/2000/svg">
  <defs
     id="defs193" />
  <sodipodi:namedview
     id="namedview191"
     pagecolor="#ffffff"
     bordercolor="#666666"
     borderopacity="1.0"
     inkscape:pageshadow="2"
     inkscape:pageopacity="0.0"
     inkscape:pagecheckerboard="0"
     showgrid="false"
     inkscape:zoom="1.4875622"
     inkscape:cx="126.71739"
     inkscape:cy="315.61706"
     inkscape:window-width="1312"
     inkscape:window-height="1081"
     inkscape:window-x="75"
     inkscape:window-y="25"
     inkscape:window-maximized="0"
     inkscape:current-layer="svg189" />
  <path
     d="M290 7v25L260 2h25z"
     id="path138" />
  <path
     fill="none"
     stroke="#27AAE1"
     stroke-width="2"
     stroke-miterlimit="10"
     d="M290 584V17M275 17h16.125"
     id="path140" />
  <path
     d="M10 2h30L10 32z"
     id="path142" />
  <path
     fill="none"
     stroke="#27aae1"
     stroke-width="2"
     stroke-miterlimit="10"
     d="m 265,7 20,20 -0.773,286 -270,-0.42129 L 15,27 35,7 Z"
     id="path144"
     sodipodi:nodetypes="ccccccc" />
  <linearGradient
     id="a"
     gradientUnits="userSpaceOnUse"
     x1="302.675"
     y1="-14.876"
     x2="590.085"
     y2="-14.876"
     gradientTransform="matrix(1,0,0,-1,-297.153,283.046)">
    <stop
       offset="0"
       id="stop146" />
    <stop
       offset=".54"
       stop-opacity=".8"
       id="stop148" />
    <stop
       offset="1"
       id="stop150" />
  </linearGradient>
  <path
     fill="url(#a)"
     stroke="#27aae1"
     stroke-width="2"
     stroke-miterlimit="10"
     d="M 292.932,297.919 284.227,313 h -270 l -8.705,-15.081 8.705,-15.075 h 270 z"
     id="path153"
     style="fill:url(#a)" />
  <path
     stroke="#27aae1"
     stroke-width="2.1893"
     stroke-miterlimit="10"
     d="m 14.227,312.57871 270,0.42129 v 125.20895 l -270,0 z m 265,251.44741 -15,17.97388 h -230 l -15,-17.97388 V 438.20895 h 260 z m 0,-125.81717 h 5 v 83.8781 h -5 z m -265,0 h 5 v 83.8781 h -5 z m 275,-151.42996 c 1,3 0,-118.17826 0,-118.17826 l -4.5,-23.96518 -0.5,131.80846 c 0,0 5,13.70733 5,10.33498 z"
     id="path155"
     inkscape:transform-center-y="8.3086152"
     inkscape:transform-center-x="-4.0468227"
     sodipodi:nodetypes="ccccccccccccccccccccccccccc" />
  <path
     fill="none"
     stroke="#27aae1"
     stroke-width="2"
     stroke-miterlimit="10"
     d="M 10,286.48141 V 231.20867 L 15,220 v 61.64767 z"
     id="path157"
     sodipodi:nodetypes="ccccc" />
  <path
     fill="#27aae1"
     d="m 16.369749,307 -5.781177,-10 5.781177,-10 z m 267.318821,0 5.78017,-10 -5.78017,-10 z"
     id="path159"
     style="stroke-width:1.00062" />
  <path
     fill="none"
     stroke="#27AAE1"
     stroke-miterlimit="10"
     d="M270 565l-10 10M275 565l-15 15M30 565l10 10M25 565l15 15"
     id="path161" />
  <path
     fill="none"
     stroke="#27AAE1"
     stroke-width="2"
     stroke-miterlimit="10"
     d="M280 22h10"
     id="path163" />
  <path
     fill="#1C75BC"
     d="M5 450h5v10H5z"
     id="path165" />
  <path
     fill="#27AAE1"
     d="M5 465h5v10H5z"
     id="path167" />
  <path
     fill="#5ECAE7"
     d="M5 480h5v10H5z"
     id="path169" />
  <path
     fill="#AEDFE9"
     d="M5 495h5v10H5z"
     id="path171" />
  <path
     fill="#FFF"
     d="M5 510h5v10H5z"
     id="path173" />
  <path
     fill="#1C75BC"
     d="M5 435h5v10H5z"
     id="path175" />
  <path
     fill="#27AAE1"
     d="M5 420h5v10H5z"
     id="path177" />
  <path
     fill="#5ECAE7"
     d="M5 405h5v10H5z"
     id="path179" />
  <path
     fill="#AEDFE9"
     d="M5 390h5v10H5z"
     id="path181" />
  <path
     fill="#FFF"
     d="M5 375h5v10H5z"
     id="path183" />
  <path
     fill="none"
     stroke="#27AAE1"
     stroke-miterlimit="10"
     d="M0 525v65M5 545v50M15 545v60M10 560v40"
     id="path185" />
  <path
     stroke="#27aae1"
     stroke-miterlimit="10"
     d="m 42.96613,583.34448 h 210 v 10 h -210 z"
     id="path968"
     style="stroke-width:1" />
</svg>
