<svg xmlns="http://www.w3.org/2000/svg" xmlns:svg="http://www.w3.org/2000/svg" id="svg189" width="295" height="605" version="1.1"><path id="path138" d="M290 7v25L260 2h25z"/><path id="path140" fill="none" stroke="#27AAE1" stroke-miterlimit="10" stroke-width="2" d="M290 584V17M275 17h16.125"/><path id="path142" d="M10 2h30L10 32z"/><path id="path144" fill="none" stroke="#27aae1" stroke-miterlimit="10" stroke-width="2" d="m 265,7 20,20 -0.773,286 -270,-0.42129 L 15,27 35,7 Z"/><linearGradient id="a" x1="302.675" x2="590.085" y1="-14.876" y2="-14.876" gradientTransform="matrix(1,0,0,-1,-297.153,283.046)" gradientUnits="userSpaceOnUse"><stop id="stop146" offset="0"/><stop id="stop148" offset=".54" stop-opacity=".8"/><stop id="stop150" offset="1"/></linearGradient><path id="path153" fill="url(#a)" stroke="#27aae1" stroke-miterlimit="10" stroke-width="2" d="M 292.932,297.919 284.227,313 h -270 l -8.705,-15.081 8.705,-15.075 h 270 z" style="fill:url(#a)"/><path id="path155" stroke="#27aae1" stroke-miterlimit="10" stroke-width="2.189" d="m 14.227,312.57871 270,0.42129 v 125.20895 l -270,0 z m 265,251.44741 -15,17.97388 h -230 l -15,-17.97388 V 438.20895 h 260 z m 0,-125.81717 h 5 v 83.8781 h -5 z m -265,0 h 5 v 83.8781 h -5 z m 275,-151.42996 c 1,3 0,-118.17826 0,-118.17826 l -4.5,-23.96518 -0.5,131.80846 c 0,0 5,13.70733 5,10.33498 z" style="fill:none"/><path id="path157" fill="none" stroke="#27aae1" stroke-miterlimit="10" stroke-width="2" d="M 10,286.48141 V 231.20867 L 15,220 v 61.64767 z"/><path id="path159" fill="#27aae1" d="m 16.369749,307 -5.781177,-10 5.781177,-10 z m 267.318821,0 5.78017,-10 -5.78017,-10 z" style="stroke-width:1.00062"/><path id="path161" fill="none" stroke="#27AAE1" stroke-miterlimit="10" d="M270 565l-10 10M275 565l-15 15M30 565l10 10M25 565l15 15"/><path id="path163" fill="none" stroke="#27AAE1" stroke-miterlimit="10" stroke-width="2" d="M280 22h10"/><path id="path165" fill="#1C75BC" d="M5 450h5v10H5z"/><path id="path167" fill="#27AAE1" d="M5 465h5v10H5z"/><path id="path169" fill="#5ECAE7" d="M5 480h5v10H5z"/><path id="path171" fill="#AEDFE9" d="M5 495h5v10H5z"/><path id="path173" fill="#FFF" d="M5 510h5v10H5z"/><path id="path175" fill="#1C75BC" d="M5 435h5v10H5z"/><path id="path177" fill="#27AAE1" d="M5 420h5v10H5z"/><path id="path179" fill="#5ECAE7" d="M5 405h5v10H5z"/><path id="path181" fill="#AEDFE9" d="M5 390h5v10H5z"/><path id="path183" fill="#FFF" d="M5 375h5v10H5z"/><path id="path185" fill="none" stroke="#27AAE1" stroke-miterlimit="10" d="M0 525v65M5 545v50M15 545v60M10 560v40"/><path id="path968" stroke="#27aae1" stroke-miterlimit="10" d="m 42.96613,583.34448 h 210 v 10 h -210 z" style="stroke-width:1"/></svg>