<?xml version="1.0" encoding="utf-8"?>
<!-- Generator: Adobe Illustrator 16.0.0, SVG Export Plug-In . SVG Version: 6.00 Build 0)  -->
<!DOCTYPE svg PUBLIC "-//W3C//DTD SVG 1.1//EN" "http://www.w3.org/Graphics/SVG/1.1/DTD/svg11.dtd">
<svg version="1.1" id="Layer_1" xmlns="http://www.w3.org/2000/svg" xmlns:xlink="http://www.w3.org/1999/xlink" x="0px" y="0px"
	 width="348.125px" height="22px" viewBox="0 0 348.125 22" enable-background="new 0 0 348.125 22" xml:space="preserve">
<polygon opacity="0.75" points="117.125,21 127.125,1 232.125,1 232.125,21 127.125,21 "/>
<polygon opacity="0.75" points="232.125,21 242.125,1 347.125,1 347.125,11 337.125,21 242.125,21 "/>
<polygon opacity="0.75" points="2.125,11 12.125,1 117.125,1 117.125,21 12.125,21 "/>
<polygon fill="none" stroke="#27AAE1" stroke-width="2" stroke-miterlimit="10" points="117.125,21 127.125,1 232.125,1 232.125,21 
	127.125,21 "/>
<polygon fill="none" stroke="#27AAE1" stroke-width="2" stroke-miterlimit="10" points="232.125,21 242.125,1 347.125,1 347.125,11 
	337.125,21 242.125,21 "/>
<polygon fill="none" stroke="#27AAE1" stroke-width="2" stroke-miterlimit="10" points="2.125,11 12.125,1 117.125,1 117.125,21 
	12.125,21 "/>
</svg>
