<?xml version="1.0" encoding="utf-8"?>
<!-- Generator: Adobe Illustrator 16.0.0, SVG Export Plug-In . SVG Version: 6.00 Build 0)  -->
<!DOCTYPE svg PUBLIC "-//W3C//DTD SVG 1.1//EN" "http://www.w3.org/Graphics/SVG/1.1/DTD/svg11.dtd">
<svg version="1.1" id="Layer_1" xmlns="http://www.w3.org/2000/svg" xmlns:xlink="http://www.w3.org/1999/xlink" x="0px" y="0px"
	 width="804px" height="629px" viewBox="0 0 804 629" enable-background="new 0 0 804 629" xml:space="preserve">
<polyline opacity="0.5" points="297,36.834 307,36.834 337,36.834 352,51.834 677,51.834 692,36.834 782,36.834 797,51.834 
	797,601.834 777,621.834 312,621.834 297,606.834 297,36.834 297,36.834 "/>
<g id="Layer_1_1_" display="none">
	<polygon display="inline" stroke="#27AAE1" stroke-width="2" stroke-miterlimit="10" points="2,599.303 2,28 16.578,2.751 
		297,2.751 312.155,28 652,28 666.578,2.751 787.422,2.751 802,28 802,599.303 785.432,628 18.569,628 	"/>
</g>
<g id="Layer_4" display="none">
	<polygon display="inline" stroke="#27AAE1" stroke-width="2" stroke-miterlimit="10" points="2,27 27,2 276.667,2 302,27 657,27 
		682.167,2 682.167,2 777,2 802,27.25 802,607 781.5,627 22,627 2,607.25 	"/>
</g>
<g id="Layer_6">
	<polygon stroke="#27AAE1" stroke-width="2" stroke-miterlimit="10" points="282,7 677,7 657,27 302,27 	"/>
	<g>
		<path stroke="#27AAE1" stroke-width="2" stroke-miterlimit="10" d="M777,2h-94.833L657,27H302L276.667,2H27L2,27v580.25L22,627
			h250.063L282,617h5l10,10h484.5l20.5-20V27.25L777,2z M297,36.834h40l15,15h325l15-15h90l15,15v550l-20,20H312l-15-15V36.834z"/>
	</g>
</g>
<g id="Layer_5" display="none">
	
		<image display="inline" overflow="visible" enable-background="new    " width="564" height="961" xlink:href="../../../../../Tabletop/Traveller/Characters/7c07fffd2c690f41a3c3066e50365789.jpg"  transform="matrix(0.4791 0 0 0.4791 -363.2129 -28.4158)">
	</image>
	
		<image display="inline" overflow="visible" enable-background="new    " width="564" height="798" xlink:href="../../../../../Tabletop/Traveller/Characters/096b6534925e916f0e5877525a52fd7d.png"  transform="matrix(0.4805 0 0 0.4805 -398.0005 -11.4373)">
	</image>
	
		<image display="inline" overflow="visible" enable-background="new    " width="564" height="847" xlink:href="../../../../../Tabletop/Traveller/New Interface/img/ef2eca039f40c99a6e57b29496edba7e.jpg"  transform="matrix(0.4787 0 0 0.4787 22 26.9998)">
	</image>
</g>
<g id="Layer_2" display="none">
	<polyline display="inline" fill="none" stroke="#27AAE1" stroke-width="2" stroke-miterlimit="10" points="302,37 307,37 337,37 
		352,52 677,52 692,37 782,37 797,52 797,602 777,622 312,622 302,612 	"/>
	
		<linearGradient id="SVGID_1_" gradientUnits="userSpaceOnUse" x1="320.666" y1="266.3235" x2="320.666" y2="266.3235" gradientTransform="matrix(1 0 0 -1 -19.96 633.4009)">
		<stop  offset="0" style="stop-color:#000000"/>
		<stop  offset="0.54" style="stop-color:#000000;stop-opacity:0.8"/>
		<stop  offset="1" style="stop-color:#000000"/>
	</linearGradient>
	<path display="inline" fill="url(#SVGID_1_)" stroke="#27AAE1" stroke-width="2" stroke-miterlimit="10" d="M300.706,367.077"/>
	<polygon display="inline" points="297,27 297,27 297,52 267,22 292,22 	"/>
	<polyline display="inline" fill="none" stroke="#27AAE1" stroke-width="2" stroke-miterlimit="10" points="302,612 297,607 297,37 
			"/>
	<line display="inline" fill="none" stroke="#27AAE1" stroke-width="2" stroke-miterlimit="10" x1="282" y1="37" x2="302" y2="37"/>
	<polygon display="inline" points="17,22 47,22 17,52 	"/>
	<polygon display="inline" fill="none" stroke="#27AAE1" stroke-width="2" stroke-miterlimit="10" points="272,27 292,47 292,352 
		272,352 42,352 22,352 22,47 42,27 	"/>
	
		<linearGradient id="SVGID_2_" gradientUnits="userSpaceOnUse" x1="33.2549" y1="266.323" x2="320.665" y2="266.323" gradientTransform="matrix(1 0 0 -1 -19.96 633.4009)">
		<stop  offset="0" style="stop-color:#000000"/>
		<stop  offset="0.54" style="stop-color:#000000;stop-opacity:0.8"/>
		<stop  offset="1" style="stop-color:#000000"/>
	</linearGradient>
	<polyline display="inline" fill="url(#SVGID_2_)" stroke="#27AAE1" stroke-width="2" stroke-miterlimit="10" points="
		300.705,367.077 292,382.156 22,382.156 13.295,367.077 22,352 292,352 300.705,367.077 	"/>
	
		<rect x="22" y="382.156" display="inline" stroke="#27AAE1" stroke-width="2" stroke-miterlimit="10" width="270" height="74.845"/>
	<polygon display="inline" stroke="#27AAE1" stroke-width="2" stroke-miterlimit="10" points="287,592 272,607 42,607 27,592 
		27,457.656 287,457.656 	"/>
	<rect x="287" y="487" display="inline" stroke="#27AAE1" stroke-width="2" stroke-miterlimit="10" width="5" height="70"/>
	<rect x="22" y="487" display="inline" stroke="#27AAE1" stroke-width="2" stroke-miterlimit="10" width="5" height="70"/>
	<polygon display="inline" stroke="#27AAE1" stroke-width="2" stroke-miterlimit="10" points="297,360.625 297,262 292,242 292,352 
			"/>
	<polygon display="inline" fill="none" stroke="#27AAE1" stroke-width="2" stroke-miterlimit="10" points="17,360.625 17,262 
		22,242 22,352 	"/>
	<polygon display="inline" fill="#27AAE1" points="24.24,377 18.466,367 24.24,357 	"/>
	<polygon display="inline" fill="#27AAE1" points="291.227,377 297,367 291.227,357 	"/>
	<line display="inline" fill="none" stroke="#27AAE1" stroke-miterlimit="10" x1="277" y1="587" x2="267" y2="597"/>
	<line display="inline" fill="none" stroke="#27AAE1" stroke-miterlimit="10" x1="282" y1="587" x2="267" y2="602"/>
	<line display="inline" fill="none" stroke="#27AAE1" stroke-miterlimit="10" x1="37" y1="587" x2="47" y2="597"/>
	<line display="inline" fill="none" stroke="#27AAE1" stroke-miterlimit="10" x1="32" y1="587" x2="47" y2="602"/>
	<line display="inline" fill="none" stroke="#27AAE1" stroke-width="2" stroke-miterlimit="10" x1="287" y1="42" x2="297" y2="42"/>
	<rect x="12" y="472" display="inline" fill="#1C75BC" width="5" height="10"/>
	<rect x="12" y="487" display="inline" fill="#27AAE1" width="5" height="10"/>
	<rect x="12" y="502" display="inline" fill="#5ECAE7" width="5" height="10"/>
	<rect x="12" y="517" display="inline" fill="#AEDFE9" width="5" height="10"/>
	<rect x="12" y="532" display="inline" fill="#FFFFFF" width="5" height="10"/>
	<rect x="12" y="457" display="inline" fill="#1C75BC" width="5" height="10"/>
	<rect x="12" y="442" display="inline" fill="#27AAE1" width="5" height="10"/>
	<rect x="12" y="427" display="inline" fill="#5ECAE7" width="5" height="10"/>
	<rect x="12" y="412" display="inline" fill="#AEDFE9" width="5" height="10"/>
	<rect x="12" y="397" display="inline" fill="#FFFFFF" width="5" height="10"/>
	<line display="inline" fill="none" stroke="#27AAE1" stroke-miterlimit="10" x1="7" y1="547" x2="7" y2="612"/>
	<line display="inline" fill="none" stroke="#27AAE1" stroke-miterlimit="10" x1="12" y1="567" x2="12" y2="617"/>
	<line display="inline" fill="none" stroke="#27AAE1" stroke-miterlimit="10" x1="22" y1="567" x2="22" y2="627"/>
	<line display="inline" fill="none" stroke="#27AAE1" stroke-miterlimit="10" x1="17" y1="582" x2="17" y2="622"/>
	<rect x="52" y="607" display="inline" stroke="#27AAE1" stroke-miterlimit="10" width="210" height="10"/>
</g>
<g id="Layer_8" display="none">
	<g display="inline">
		<polygon fill="#010101" stroke="#5FCAE7" stroke-width="2" stroke-miterlimit="10" points="262.319,523.782 262.319,518.092 
			272.148,512.416 264.529,498.842 249.278,498.842 241.652,512.427 248.027,523.782 261.826,523.782 		"/>
		<polygon fill="#010101" stroke="#5FCAE7" stroke-width="2" stroke-miterlimit="10" points="262.319,523.782 261.826,523.782 
			248.027,523.782 241.652,535.139 249.278,548.723 264.529,548.723 272.153,535.139 272.147,535.129 262.319,529.454 		"/>
		<polyline fill="#010101" stroke="#5FCAE7" stroke-width="2" stroke-miterlimit="10" points="262.319,523.782 261.826,523.782 
			248.027,523.782 		"/>
		<polygon fill="#010101" stroke="#5FCAE7" stroke-width="2" stroke-miterlimit="10" points="272.159,512.409 272.148,512.416 
			262.319,518.092 262.319,523.782 262.319,529.454 272.147,535.129 272.159,535.136 282,529.454 282,518.092 		"/>
	</g>
	<g display="inline">
		<polygon fill="#010101" stroke="#5FCAE7" stroke-width="2" stroke-miterlimit="10" points="89.595,473.861 72.301,473.861 
			67.741,482.201 63.179,473.861 45.886,473.861 37.24,489.668 45.886,505.477 63.179,505.477 67.741,497.136 72.301,505.477 
			89.595,505.477 98.24,489.668 		"/>
		<polygon fill="#010101" stroke="#5FCAE7" stroke-width="2" stroke-miterlimit="10" points="61.158,521.861 54.576,510.438 
			61.158,499.014 74.323,499.014 80.904,510.438 74.323,521.861 		"/>
	</g>
	<g display="inline">
		<polygon fill="#010101" stroke="#5FCAE7" stroke-width="2" stroke-miterlimit="10" points="89.767,538.723 72.337,538.723 
			67.741,547.111 63.144,538.723 45.714,538.723 37,554.62 45.714,570.521 63.144,570.521 67.741,562.132 72.337,570.521 
			89.767,570.521 98.48,554.62 		"/>
		<polygon fill="#010101" stroke="#5FCAE7" stroke-width="2" stroke-miterlimit="10" points="61.106,587 54.473,575.51 
			61.106,564.021 74.375,564.021 81.008,575.51 74.375,587 		"/>
	</g>
	<g display="inline">
		<polygon fill="#010101" stroke="#5FCAE7" stroke-width="2" stroke-miterlimit="10" points="159.767,473.723 142.337,473.723 
			137.741,482.111 133.144,473.723 115.714,473.723 107,489.62 115.714,505.521 133.144,505.521 137.741,497.132 142.337,505.521 
			159.767,505.521 168.48,489.62 		"/>
		<polygon fill="#010101" stroke="#5FCAE7" stroke-width="2" stroke-miterlimit="10" points="131.106,522 124.473,510.51 
			131.106,499.021 144.375,499.021 151.008,510.51 144.375,522 		"/>
	</g>
	<polygon display="inline" fill="#010101" stroke="#5FCAE7" stroke-width="2" stroke-miterlimit="10" points="159.767,538.723 
		142.337,538.723 137.741,547.111 133.144,538.723 115.714,538.723 107,554.62 115.714,570.521 133.144,570.521 137.741,562.132 
		142.337,570.521 159.767,570.521 168.48,554.62 	"/>
	<polygon display="inline" fill="#010101" stroke="#5FCAE7" stroke-width="2" stroke-miterlimit="10" points="131.106,587 
		124.473,575.51 131.106,564.021 144.375,564.021 151.008,575.51 144.375,587 	"/>
	<g display="inline">
		<polygon fill="#010101" stroke="#5FCAE7" stroke-width="2" stroke-miterlimit="10" points="229.767,473.723 212.337,473.723 
			207.741,482.111 203.144,473.723 185.714,473.723 177,489.62 185.714,505.521 203.144,505.521 207.741,497.132 212.337,505.521 
			229.767,505.521 238.48,489.62 		"/>
		<polygon fill="#010101" stroke="#5FCAE7" stroke-width="2" stroke-miterlimit="10" points="201.106,522 194.473,510.51 
			201.106,499.021 214.375,499.021 221.008,510.51 214.375,522 		"/>
	</g>
	<g display="inline">
		<polygon fill="#010101" stroke="#5FCAE7" stroke-width="2" stroke-miterlimit="10" points="229.767,538.723 212.337,538.723 
			207.741,547.111 203.144,538.723 185.714,538.723 177,554.62 185.714,570.521 203.144,570.521 207.741,562.132 212.337,570.521 
			229.767,570.521 238.48,554.62 		"/>
		<polygon fill="#010101" stroke="#5FCAE7" stroke-width="2" stroke-miterlimit="10" points="201.106,587 194.473,575.51 
			201.106,564.021 214.375,564.021 221.008,575.51 214.375,587 		"/>
	</g>
</g>
<g id="Buttons" display="none">
	<polygon display="inline" stroke="#27AAE1" stroke-width="2" stroke-miterlimit="10" points="457,52 467,32 572,32 572,52 467,52 	
		"/>
	<polygon display="inline" stroke="#27AAE1" stroke-width="2" stroke-miterlimit="10" points="572,52 582,32 687,32 687,42 677,52 
		582,52 	"/>
	<polygon display="inline" stroke="#27AAE1" stroke-width="2" stroke-miterlimit="10" points="342,42 352,32 457,32 457,52 352,52 	
		"/>
</g>
<g id="Layer_3" display="none">
	<polygon display="inline" stroke="#000000" stroke-width="2" stroke-miterlimit="10" points="298.902,27 311.402,27 
		311.402,49.425 	"/>
	<polygon display="inline" stroke="#000000" stroke-width="2" stroke-miterlimit="10" points="33.902,27 21.402,27 21.402,49.425 	
		"/>
	<polygon display="inline" opacity="0.75" enable-background="new    " points="33.902,359.425 21.402,337.774 33.902,316.123 
		298.902,316.123 311.402,337.774 298.902,359.425 	"/>
	<polygon display="inline" stroke="#27AAE1" stroke-width="2" stroke-miterlimit="10" points="311.402,467.541 311.402,337.774 
		298.902,359.425 33.902,359.425 21.402,337.774 21.384,467.56 	"/>
	<polygon display="inline" fill="none" stroke="#27AAE1" stroke-width="2" stroke-miterlimit="10" points="33.902,359.425 
		21.402,337.774 33.902,316.123 298.902,316.123 311.402,337.774 298.902,359.425 	"/>
	<polygon display="inline" fill="none" stroke="#27AAE1" stroke-width="2" stroke-miterlimit="10" points="311.402,49.425 
		298.902,27.774 33.902,27.774 21.402,49.425 21.402,337.774 33.902,359.425 298.902,359.425 311.402,337.774 	"/>
	<polygon display="inline" fill="none" stroke="#27AAE1" stroke-width="2" stroke-miterlimit="10" points="26.735,591.091 
		39.005,612.343 294.132,612.343 306.402,591.091 306.402,467.541 26.402,467.541 	"/>
	<g display="inline">
		<polygon stroke="#27AAE1" stroke-width="2" stroke-miterlimit="10" points="21.298,94.651 12,78.545 21.298,62.438 39.896,62.438 
			49.195,78.545 39.896,94.651 		"/>
		<polygon stroke="#27AAE1" stroke-width="2" stroke-miterlimit="10" points="21.298,126.863 12,110.758 21.298,94.651 
			39.896,94.651 49.195,110.758 39.896,126.863 		"/>
		<polygon stroke="#27AAE1" stroke-width="2" stroke-miterlimit="10" points="47.297,107.469 39.896,94.651 47.297,81.833 
			62.099,81.833 69.499,94.651 62.099,107.469 		"/>
	</g>
	<g display="inline">
		<polygon stroke="#27AAE1" stroke-width="2" stroke-miterlimit="10" points="21.402,174.755 12.104,158.649 21.402,142.542 
			39.999,142.542 49.298,158.649 39.999,174.755 		"/>
		<polygon stroke="#27AAE1" stroke-width="2" stroke-miterlimit="10" points="21.402,206.967 12.104,190.861 21.402,174.755 
			39.999,174.755 49.298,190.861 39.999,206.967 		"/>
		<polygon stroke="#27AAE1" stroke-width="2" stroke-miterlimit="10" points="47.4,187.572 39.999,174.755 47.4,161.936 
			62.203,161.936 69.603,174.755 62.203,187.572 		"/>
	</g>
	<g display="inline">
		<polygon stroke="#27AAE1" stroke-width="2" stroke-miterlimit="10" points="21.402,254.755 12.104,238.649 21.402,222.542 
			39.999,222.542 49.298,238.649 39.999,254.755 		"/>
		<polygon stroke="#27AAE1" stroke-width="2" stroke-miterlimit="10" points="21.402,286.967 12.104,270.861 21.402,254.755 
			39.999,254.755 49.298,270.861 39.999,286.967 		"/>
		<polygon stroke="#27AAE1" stroke-width="2" stroke-miterlimit="10" points="47.4,267.572 39.999,254.755 47.4,241.937 
			62.203,241.937 69.603,254.755 62.203,267.572 		"/>
	</g>
	<g display="inline">
		<polygon stroke="#27AAE1" stroke-width="2" stroke-miterlimit="10" points="311.402,94.755 320.701,78.649 311.402,62.542 
			292.804,62.542 283.505,78.649 292.804,94.755 		"/>
		<polygon stroke="#27AAE1" stroke-width="2" stroke-miterlimit="10" points="311.402,126.967 320.701,110.861 311.402,94.755 
			292.804,94.755 283.505,110.861 292.804,126.967 		"/>
		<polygon stroke="#27AAE1" stroke-width="2" stroke-miterlimit="10" points="285.404,107.572 292.804,94.755 285.404,81.936 
			270.601,81.936 263.201,94.755 270.601,107.572 		"/>
	</g>
	<g display="inline">
		<polygon stroke="#27AAE1" stroke-width="2" stroke-miterlimit="10" points="311.402,174.755 320.701,158.649 311.402,142.542 
			292.804,142.542 283.505,158.649 292.804,174.755 		"/>
		<polygon stroke="#27AAE1" stroke-width="2" stroke-miterlimit="10" points="311.402,206.967 320.701,190.861 311.402,174.755 
			292.804,174.755 283.505,190.861 292.804,206.967 		"/>
		<polygon stroke="#27AAE1" stroke-width="2" stroke-miterlimit="10" points="285.404,187.572 292.804,174.755 285.404,161.936 
			270.601,161.936 263.201,174.755 270.601,187.572 		"/>
	</g>
	<g display="inline">
		<polygon stroke="#27AAE1" stroke-width="2" stroke-miterlimit="10" points="311.402,254.755 320.701,238.649 311.402,222.542 
			292.804,222.542 283.505,238.649 292.804,254.755 		"/>
		<polygon stroke="#27AAE1" stroke-width="2" stroke-miterlimit="10" points="311.402,286.967 320.701,270.861 311.402,254.755 
			292.804,254.755 283.505,270.861 292.804,286.967 		"/>
		<polygon stroke="#27AAE1" stroke-width="2" stroke-miterlimit="10" points="285.404,267.572 292.804,254.755 285.404,241.937 
			270.601,241.937 263.201,254.755 270.601,267.572 		"/>
	</g>
</g>
</svg>
