<svg xmlns="http://www.w3.org/2000/svg" width="295" height="605"><path d="M290 7v25L260 2h25z"/><path fill="none" stroke="#27AAE1" stroke-width="2" stroke-miterlimit="10" d="M290 584V17M275 17h16.125"/><path d="M10 2h30L10 32z"/><path fill="none" stroke="#27AAE1" stroke-width="2" stroke-miterlimit="10" d="M265 7l20 20v303H15V27L35 7z"/><linearGradient id="a" gradientUnits="userSpaceOnUse" x1="302.675" y1="-14.876" x2="590.085" y2="-14.876" gradientTransform="matrix(1 0 0 -1 -296.38 330.202)"><stop offset="0"/><stop offset=".54" stop-opacity=".8"/><stop offset="1"/></linearGradient><path fill="url(#a)" stroke="#27AAE1" stroke-width="2" stroke-miterlimit="10" d="M293.705 345.075L285 360.156H15l-8.705-15.081L15 330h270z"/><path stroke="#27AAE1" stroke-width="2" stroke-miterlimit="10" d="M15 360.156h270v74.847H15zM280 570l-15 15H35l-15-15V435.656h260zM280 465h5v70h-5zM15 465h5v70h-5zM290 338.625V240l-5-20v110z"/><path fill="none" stroke="#27AAE1" stroke-width="2" stroke-miterlimit="10" d="M10 338.625V240l5-20v110z"/><path fill="#27AAE1" d="M17.24 355l-5.774-10 5.774-10zM284.227 355L290 345l-5.773-10z"/><path fill="none" stroke="#27AAE1" stroke-miterlimit="10" d="M270 565l-10 10M275 565l-15 15M30 565l10 10M25 565l15 15"/><path fill="none" stroke="#27AAE1" stroke-width="2" stroke-miterlimit="10" d="M280 22h10"/><path fill="#1C75BC" d="M5 450h5v10H5z"/><path fill="#27AAE1" d="M5 465h5v10H5z"/><path fill="#5ECAE7" d="M5 480h5v10H5z"/><path fill="#AEDFE9" d="M5 495h5v10H5z"/><path fill="#FFF" d="M5 510h5v10H5z"/><path fill="#1C75BC" d="M5 435h5v10H5z"/><path fill="#27AAE1" d="M5 420h5v10H5z"/><path fill="#5ECAE7" d="M5 405h5v10H5z"/><path fill="#AEDFE9" d="M5 390h5v10H5z"/><path fill="#FFF" d="M5 375h5v10H5z"/><path fill="none" stroke="#27AAE1" stroke-miterlimit="10" d="M0 525v65M5 545v50M15 545v60M10 560v40"/><path stroke="#27AAE1" stroke-miterlimit="10" d="M45 585h210v10H45z"/></svg>