<?xml version="1.0" encoding="utf-8"?>
<!-- Generator: Adobe Illustrator 16.0.0, SVG Export Plug-In . SVG Version: 6.00 Build 0)  -->
<!DOCTYPE svg PUBLIC "-//W3C//DTD SVG 1.1//EN" "http://www.w3.org/Graphics/SVG/1.1/DTD/svg11.dtd">
<svg version="1.1" id="Layer_1" xmlns="http://www.w3.org/2000/svg" xmlns:xlink="http://www.w3.org/1999/xlink" x="0px" y="0px"
	 width="42.667px" height="51.917px" viewBox="0 0 42.667 51.917" enable-background="new 0 0 42.667 51.917" xml:space="preserve">
<g>
	<polygon fill="#010101" stroke="#27A9E1" stroke-width="2" stroke-miterlimit="10" points="22.005,25.917 22.005,20.212 
		31.75,14.522 24.196,0.917 9.078,0.917 1.517,14.534 7.837,25.917 21.517,25.917 	"/>
	<polygon fill="#010101" stroke="#27A9E1" stroke-width="2" stroke-miterlimit="10" points="22.005,25.917 21.517,25.917 
		7.837,25.917 1.517,37.3 9.078,50.917 24.196,50.917 31.755,37.3 31.75,37.291 22.005,31.603 	"/>
	<polyline fill="#010101" stroke="#27A9E1" stroke-width="2" stroke-miterlimit="10" points="22.005,25.917 21.517,25.917 
		7.837,25.917 	"/>
	<polygon fill="#010101" stroke="#27A9E1" stroke-width="2" stroke-miterlimit="10" points="31.761,14.517 31.75,14.522 
		22.005,20.212 22.005,25.917 22.005,31.603 31.75,37.291 31.761,37.296 41.517,31.603 41.517,20.212 	"/>
</g>
</svg>
